<svg id="Calque_2" data-name="Calque 2" xmlns="http://www.w3.org/2000/svg" viewBox="0 0 341.27 365.5"><path d="M268.66,165.24c-15.41-7.84-18.64-24.55-29.57-24.19-8.86.29-11,11.4-22.85,18.81-13.84,8.69-31,6.07-43,2.69v64.68a25,25,0,0,0,2.43,10.8,85.63,85.63,0,0,0,4.29,7.85,84.2,84.2,0,0,0,24.34,26A69.28,69.28,0,0,0,223,280.82a71.29,71.29,0,0,0,36.29,1.35,64.67,64.67,0,0,0,22.86-10.61c12.42-9,20.27-20.83,24.5-28.64a31.22,31.22,0,0,0,3.71-14.84V163.9C298,168.61,282.15,172.1,268.66,165.24Zm-64.81,32.83c-3.23,0-5.7-3.52-5.38-6.72.27-2.56,2.38-5.37,5.38-5.37s5.11,2.81,5.38,5.37C209.55,194.55,207.08,198.07,203.85,198.07Zm75.56-.57c-3.23,0-5.7-3.53-5.38-6.72.27-2.57,2.38-5.38,5.38-5.38s5.11,2.81,5.37,5.38C285.11,194,282.63,197.5,279.41,197.5Z" transform="translate(-74.5 -49)" style="fill:#fff;stroke:#000;stroke-miterlimit:10;stroke-width:12px"/><path d="M173.23,173.3v55.11l-.86-.2c-1.86-.44-14.89-3.59-20.64-14.59a29.14,29.14,0,0,1-2.64-18.9,26.78,26.78,0,0,1,8-14.7A27.29,27.29,0,0,1,173.23,173.3Z" transform="translate(-74.5 -49)" style="fill:#fff;stroke:#000;stroke-miterlimit:10;stroke-width:12px"/><path d="M332.81,214.77c-6,11.52-20.56,14.56-22.49,15v-55.1c2.94.24,11.11,1,17.11,6.52a26.7,26.7,0,0,1,8.08,15A29.13,29.13,0,0,1,332.81,214.77Z" transform="translate(-74.5 -49)" style="fill:#fff;stroke:#000;stroke-miterlimit:10;stroke-width:12px"/><path d="M279.41,197.5c-3.23,0-5.7-3.53-5.38-6.72.27-2.57,2.38-5.38,5.38-5.38s5.11,2.81,5.37,5.38C285.11,194,282.63,197.5,279.41,197.5Z" transform="translate(-74.5 -49)" style="fill:#fff;stroke:#000;stroke-miterlimit:10;stroke-width:12px"/><path d="M203.85,198.07c-3.23,0-5.7-3.52-5.38-6.72.27-2.56,2.38-5.37,5.38-5.37s5.11,2.81,5.38,5.37C209.55,194.55,207.08,198.07,203.85,198.07Z" transform="translate(-74.5 -49)" style="fill:#fff;stroke:#000;stroke-miterlimit:10;stroke-width:12px"/><path d="M335.86,148.36v47.79l-.35.06a26.7,26.7,0,0,0-8.08-15c-6-5.49-14.17-6.28-17.11-6.52V163.9c-12.31,4.71-28.17,8.2-41.66,1.34-15.41-7.84-18.64-24.55-29.57-24.19-8.86.29-11,11.4-22.85,18.81-13.84,8.69-31,6.07-43,2.69V173.3A27.29,27.29,0,0,0,157.11,180a26.78,26.78,0,0,0-8,14.7l1.08-59a66.25,66.25,0,0,1,8.18-30.93c9.22-16.68,27-39.19,56.55-47.11,37.94-10.17,82.61,8.67,108.46,48A77.58,77.58,0,0,1,335.86,148.36Z" transform="translate(-74.5 -49)" style="fill:#fff;stroke:#000;stroke-linejoin:round;stroke-width:12px"/><path d="M149.09,194.72" transform="translate(-74.5 -49)" style="fill:none;stroke:#000;stroke-miterlimit:10;stroke-width:12px"/><path d="M283.44,295.61c-2,4.33-8.63,17.23-22.85,22.84-18.29,7.23-41.73-.53-56.44-20.16v-26.2l.14-.21A69.28,69.28,0,0,0,223,280.82a71.29,71.29,0,0,0,36.29,1.35,64.67,64.67,0,0,0,22.86-10.61Q282.77,283.59,283.44,295.61Z" transform="translate(-74.5 -49)" style="fill:#fff;stroke:#000;stroke-miterlimit:10;stroke-width:12px"/><path d="M282.11,271.56c0-.05,0-.1,0-.15" transform="translate(-74.5 -49)" style="fill:none;stroke:#000;stroke-miterlimit:10;stroke-width:12px"/><path d="M410.45,408.5h-.68" transform="translate(-74.5 -49)" style="fill:none;stroke:#000;stroke-miterlimit:10;stroke-width:12px"/><path d="M204.15,298.19" transform="translate(-74.5 -49)" style="fill:none;stroke:#000;stroke-miterlimit:10;stroke-width:12px"/><path d="M205.49,298.29" transform="translate(-74.5 -49)" style="fill:none;stroke:#000;stroke-miterlimit:10;stroke-width:12px"/><path d="M409.77,408.5H80.5c.36-6.92,3.8-57.09,47-88.7,31.53-23.06,65.3-22.41,76.61-21.61v.1c14.71,19.63,38.15,27.39,56.44,20.16,14.22-5.61,20.85-18.51,22.85-22.84,9.73-.81,45.39-1.84,78.28,22.21C405,349.43,409.42,401.58,409.77,408.5Z" transform="translate(-74.5 -49)" style="fill:#fff;stroke:#000;stroke-linejoin:round;stroke-width:12px"/><path d="M219.5,234.5c0,9,8,24,24,24" transform="translate(-74.5 -49)" style="fill:#fff;stroke:#000;stroke-linecap:round;stroke-miterlimit:10;stroke-width:12px"/><path d="M267.5,234.5c0,9-8,24-24,24" transform="translate(-74.5 -49)" style="fill:#fff;stroke:#000;stroke-linecap:round;stroke-miterlimit:10;stroke-width:12px"/></svg>