<?xml version="1.0" encoding="utf-8"?><svg xml:space="preserve" viewBox="0 0 100 100" y="0" x="0" xmlns="http://www.w3.org/2000/svg" id="Layer_1" version="1.1" width="200px" height="200px" xmlns:xlink="http://www.w3.org/1999/xlink" style="width:100%;height:100%;background-size:initial;background-repeat-y:initial;background-repeat-x:initial;background-position-y:initial;background-position-x:initial;background-origin:initial;background-image:initial;background-color:rgba(255, 255, 255, 0);background-clip:initial;background-attachment:initial;animation-play-state:paused" ><g class="ldl-scale" style="transform-origin:50% 50%;transform:rotate(0deg) scale(0.8, 0.8);animation-play-state:paused" ><path stroke-miterlimit="10" stroke-width="3.5" stroke="#333" fill="#e0e0e0" d="M77.759 66.095H50.241v-16.92c0-5.853 4.745-10.598 10.598-10.598h6.321c5.853 0 10.598 4.745 10.598 10.598v16.92z" style="stroke:rgb(51, 51, 51);fill:rgb(224, 224, 224);animation-play-state:paused" ></path>
<path stroke-miterlimit="10" stroke="#000" stroke-linejoin="round" stroke-width="3.5" opacity=".2" d="M68.417 38.658a14.584 14.584 0 0 1 3.341 9.311v18.125h6V49.175c.001-5.427-4.081-9.894-9.341-10.517z" style="animation-play-state:paused" ></path>
<circle stroke-miterlimit="10" stroke-width="3.5" stroke="#333" fill="#f4e6c8" r="10.632" cy="31.698" cx="64" style="stroke:rgb(51, 51, 51);fill:rgb(244, 230, 200);animation-play-state:paused" ></circle>
<path stroke-miterlimit="10" stroke="#000" stroke-linejoin="round" stroke-width="3.5" opacity=".2" d="M71.731 24.415a27.151 27.151 0 0 1-1.555 6.921c-1.74 4.779-4.556 8.61-7.635 10.882.478.066.963.112 1.459.112 5.872 0 10.632-4.76 10.632-10.632 0-2.822-1.107-5.38-2.901-7.283z" style="animation-play-state:paused" ></path>
<path stroke-miterlimit="10" stroke-width="3.5" stroke="#333" fill="#e0e0e0" d="M49.759 66.095H22.241v-16.92c0-5.853 4.745-10.598 10.598-10.598h6.321c5.853 0 10.598 4.745 10.598 10.598v16.92z" style="stroke:rgb(51, 51, 51);fill:rgb(224, 224, 224);animation-play-state:paused" ></path>
<path stroke-miterlimit="10" stroke="#000" stroke-linejoin="round" stroke-width="3.5" opacity=".2" d="M40.417 38.658a14.584 14.584 0 0 1 3.341 9.311v18.125h6V49.175c.001-5.427-4.081-9.894-9.341-10.517z" style="animation-play-state:paused" ></path>
<circle stroke-miterlimit="10" stroke-width="3.5" stroke="#333" fill="#f4e6c8" r="10.632" cy="31.698" cx="36" style="stroke:rgb(51, 51, 51);fill:rgb(244, 230, 200);animation-play-state:paused" ></circle>
<path stroke-miterlimit="10" stroke="#000" stroke-linejoin="round" stroke-width="3.5" opacity=".2" d="M43.731 24.415a27.151 27.151 0 0 1-1.555 6.921c-1.74 4.779-4.556 8.61-7.635 10.882.478.066.963.112 1.459.112 5.872 0 10.632-4.76 10.632-10.632 0-2.822-1.107-5.38-2.901-7.283z" style="animation-play-state:paused" ></path>
<path stroke-miterlimit="10" stroke-width="3.5" stroke="#333" fill="#e0e0e0" d="M63.759 82.095H36.241v-16.92c0-5.853 4.745-10.598 10.598-10.598h6.321c5.853 0 10.598 4.745 10.598 10.598v16.92z" style="stroke:rgb(51, 51, 51);fill:rgb(224, 224, 224);animation-play-state:paused" ></path>
<path stroke-miterlimit="10" stroke="#000" stroke-linejoin="round" stroke-width="3.5" opacity=".2" d="M54.417 54.658a14.584 14.584 0 0 1 3.341 9.311v18.125h6V65.175c.001-5.427-4.081-9.894-9.341-10.517z" style="animation-play-state:paused" ></path>
<circle stroke-miterlimit="10" stroke-width="3.5" stroke="#333" fill="#f4e6c8" r="10.632" cy="47.698" cx="50" style="stroke:rgb(51, 51, 51);fill:rgb(244, 230, 200);animation-play-state:paused" ></circle>
<path stroke-miterlimit="10" stroke="#000" stroke-linejoin="round" stroke-width="3.5" opacity=".2" d="M57.731 40.415a27.151 27.151 0 0 1-1.555 6.921c-1.74 4.779-4.556 8.61-7.635 10.882.478.066.963.112 1.459.112 5.872 0 10.632-4.76 10.632-10.632 0-2.822-1.107-5.38-2.901-7.283z" style="animation-play-state:paused" ></path>
<path stroke-miterlimit="10" stroke-width="3.5" stroke="#333" fill="#e0e0e0" d="M35.759 82.095H8.241v-16.92c0-5.853 4.745-10.598 10.598-10.598h6.321c5.853 0 10.598 4.745 10.598 10.598v16.92z" style="stroke:rgb(51, 51, 51);fill:rgb(224, 224, 224);animation-play-state:paused" ></path>
<path stroke-miterlimit="10" stroke="#000" stroke-linejoin="round" stroke-width="3.5" opacity=".2" d="M26.417 54.658a14.584 14.584 0 0 1 3.341 9.311v18.125h6V65.175c.001-5.427-4.081-9.894-9.341-10.517z" style="animation-play-state:paused" ></path>
<circle stroke-miterlimit="10" stroke-width="3.5" stroke="#333" fill="#f4e6c8" r="10.632" cy="47.698" cx="22" style="stroke:rgb(51, 51, 51);fill:rgb(244, 230, 200);animation-play-state:paused" ></circle>
<path stroke-miterlimit="10" stroke="#000" stroke-linejoin="round" stroke-width="3.5" opacity=".2" d="M29.731 40.415a27.151 27.151 0 0 1-1.555 6.921c-1.74 4.779-4.556 8.61-7.635 10.882.478.066.963.112 1.459.112 5.872 0 10.632-4.76 10.632-10.632 0-2.822-1.107-5.38-2.901-7.283z" style="animation-play-state:paused" ></path>
<path stroke-miterlimit="10" stroke-width="3.5" stroke="#333" fill="#e0e0e0" d="M91.759 82.095H64.241v-16.92c0-5.853 4.745-10.598 10.598-10.598h6.321c5.853 0 10.598 4.745 10.598 10.598v16.92z" style="stroke:rgb(51, 51, 51);fill:rgb(224, 224, 224);animation-play-state:paused" ></path>
<path stroke-miterlimit="10" stroke="#000" stroke-linejoin="round" stroke-width="3.5" opacity=".2" d="M82.417 54.658a14.584 14.584 0 0 1 3.341 9.311v18.125h6V65.175c.001-5.427-4.081-9.894-9.341-10.517z" style="animation-play-state:paused" ></path>
<circle stroke-miterlimit="10" stroke-width="3.5" stroke="#333" fill="#f4e6c8" r="10.632" cy="47.698" cx="78" style="stroke:rgb(51, 51, 51);fill:rgb(244, 230, 200);animation-play-state:paused" ></circle>
<path stroke-miterlimit="10" stroke="#000" stroke-linejoin="round" stroke-width="3.5" opacity=".2" d="M85.731 40.415a27.151 27.151 0 0 1-1.555 6.921c-1.74 4.779-4.556 8.61-7.635 10.882.478.066.963.112 1.459.112 5.872 0 10.632-4.76 10.632-10.632 0-2.822-1.107-5.38-2.901-7.283z" style="animation-play-state:paused" ></path>
<metadata xmlns:d="https://loading.io/stock/" style="animation-play-state:paused" ><d:name style="animation-play-state:paused" >crowdsourcing</d:name>


<d:tags style="animation-play-state:paused" >crowdsourcing,collaboration,cowork,crowd,participate,grassroot,together,people,citizen</d:tags>


<d:license style="animation-play-state:paused" >by</d:license>


<d:slug style="animation-play-state:paused" >gnkpm1</d:slug></metadata></g><!-- generated by https://loading.io/ --></svg>