<?xml version="1.0" encoding="utf-8"?><svg xml:space="preserve" viewBox="0 0 100 100" y="0" x="0" xmlns="http://www.w3.org/2000/svg" id="圖層_1" version="1.1" width="200px" height="200px" xmlns:xlink="http://www.w3.org/1999/xlink" style="width:100%;height:100%;background-size:initial;background-repeat-y:initial;background-repeat-x:initial;background-position-y:initial;background-position-x:initial;background-origin:initial;background-image:initial;background-color:rgba(255, 255, 255, 0);background-clip:initial;background-attachment:initial;animation-play-state:paused" ><g class="ldl-scale" style="transform-origin:50% 50%;transform:rotate(0deg) scale(0.8, 0.8);animation-play-state:paused" ><g style="animation-play-state:paused" ><circle fill="#a0c8d7" r="34.4" cy="50" cx="50" style="fill:rgb(160, 200, 215);animation-play-state:paused" ></circle></g>
<path fill="#abbd81" d="M54.1 37.5c.9 0 1.8-.4 2.4-1 .6-.6 1-1.5 1-2.4 0-.2 0-.4-.1-.7-.1-.2-.1-.4-.2-.6l-.3-.6c-.1-.2-.3-.4-.4-.5-.6-.6-1.5-1-2.4-1-.9 0-1.8.4-2.4 1-.6.6-1 1.5-1 2.4s.4 1.8 1 2.4c.6.7 1.5 1 2.4 1z" style="fill:rgb(171, 189, 129);animation-play-state:paused" ></path>
<path fill="#e0e0e0" d="M37.3 44.8l-.3-.6c-.1-.2-.3-.4-.4-.5-.2-.2-.3-.3-.5-.4l-.6-.3c-.2-.1-.4-.2-.6-.2-1.1-.2-2.3.1-3.1.9-.2.2-.3.3-.4.5l-.3.6c-.1.2-.2.4-.2.6 0 .2-.1.4-.1.7s0 .4.1.7c0 .2.1.4.2.6l.3.6c.1.2.3.4.4.5.2.2.3.3.5.4l.6.3c.2.1.4.2.6.2.2 0 .4.1.7.1.2 0 .5 0 .7-.1.2 0 .4-.1.6-.2l.6-.3c.2-.1.4-.3.5-.4.2-.2.3-.3.4-.5l.3-.6c.1-.2.1-.4.2-.6 0-.2.1-.4.1-.7s0-.4-.1-.7c-.1-.2-.2-.4-.2-.6z" style="fill:rgb(224, 224, 224);animation-play-state:paused" ></path>
<path fill="#abbd81" d="M55.3 70.6L55 70c-.1-.2-.3-.4-.4-.5-.2-.2-.3-.3-.5-.4l-.6-.3c-.2-.1-.4-.2-.6-.2-.4-.1-.9-.1-1.3 0-.2 0-.4.1-.6.2l-.6.3c-.2.1-.4.3-.5.4-.2.2-.3.3-.4.5l-.3.6c-.1.2-.1.4-.2.6 0 .2-.1.4-.1.7 0 .2 0 .4.1.7.1.2.1.4.2.6l.3.6c.1.2.3.4.4.5.2.2.3.3.5.4l.6.3c.2.1.4.2.6.2.2 0 .4.1.7.1.9 0 1.8-.4 2.4-1 .2-.2.3-.3.4-.5l.3-.6c.1-.2.2-.4.2-.6 0-.2.1-.4.1-.7 0-.2 0-.4-.1-.7l-.3-.6z" style="fill:rgb(171, 189, 129);animation-play-state:paused" ></path>
<path fill="#abbd81" d="M44.2 37.5c1.9 0 3.4-1.5 3.4-3.4s-1.5-3.4-3.4-3.4H21.6c-1.4 2-2.6 4.2-3.5 6.6.4.2.9.3 1.4.3h24.7z" style="fill:rgb(171, 189, 129);animation-play-state:paused" ></path>
<path fill="#e0e0e0" d="M54 46.1c0 1.9 1.5 3.4 3.4 3.4h9.9c.6-.4 1.2-.6 2-.6h15c-.1-2.1-.3-4.2-.8-6.2H57.4c-1.9 0-3.4 1.5-3.4 3.4z" style="fill:rgb(224, 224, 224);animation-play-state:paused" ></path>
<path fill="#e0e0e0" d="M84.3 49.5h-17c-.9.6-1.4 1.6-1.4 2.8 0 1.9 1.5 3.4 3.4 3.4h14.5c.3-1.9.5-3.8.5-5.8v-.4z" style="fill:rgb(224, 224, 224);animation-play-state:paused" ></path>
<path fill="#e0e0e0" d="M84.3 49.5c.5 0 .9-.1 1.3-.3-.4-.2-.8-.3-1.3-.3v.6z" style="fill:rgb(224, 224, 224);animation-play-state:paused" ></path>
<path fill="#e0e0e0" d="M84.3 48.9h-15c-.7 0-1.4.2-2 .6h17v-.6z" style="fill:rgb(224, 224, 224);animation-play-state:paused" ></path>
<path fill="#e0e0e0" d="M46.1 64.8c0-1.9-1.5-3.4-3.4-3.4H19c-.5 0-.9.1-1.3.3.8 2.3 1.9 4.5 3.2 6.6h21.8c1.9 0 3.4-1.6 3.4-3.5z" style="fill:rgb(224, 224, 224);animation-play-state:paused" ></path>
<path fill="#abbd81" d="M62 68.5c-1.9 0-3.4 1.5-3.4 3.4s1.5 3.4 3.4 3.4h11.2c2-1.8 3.8-3.9 5.3-6.2-.6-.4-1.3-.7-2.1-.7H62z" style="fill:rgb(171, 189, 129);animation-play-state:paused" ></path>
<path fill="#e0e0e0" d="M24.4 49.6c1.9 0 3.4-1.5 3.4-3.4s-1.5-3.4-3.4-3.4h-8c-.5 2.2-.7 4.5-.8 6.9H24.4z" style="fill:rgb(224, 224, 224);animation-play-state:paused" ></path>
<metadata xmlns:d="https://loading.io/stock/" style="animation-play-state:paused" ><d:name style="animation-play-state:paused" >earth</d:name>


<d:tags style="animation-play-state:paused" >star,solar system,planet,earth,astrology</d:tags>


<d:license style="animation-play-state:paused" >by</d:license>


<d:slug style="animation-play-state:paused" >frohgp</d:slug></metadata></g><!-- generated by https://loading.io/ --></svg>