<svg xmlns="http://www.w3.org/2000/svg" viewBox="0 0 1918.98 225.93"><g style="isolation:isolate"><g id="Calque_1" data-name="Calque 1"><path d="M1332.14,985.39a44.18,44.18,0,0,0-4.44-16.12,54.7,54.7,0,0,0-6-76l-11.78-7.91a55.07,55.07,0,0,0-28.56-5.55l-13.89,2.92a54.69,54.69,0,0,0-20.63,90.3,43.62,43.62,0,0,0-3,19.17,44.43,44.43,0,0,0,8.8,23.22,37.5,37.5,0,0,0-2.51,16.18c1.68,21.82,20.12,35,40.81,35s36.45-21.37,35-40.8a37.8,37.8,0,0,0-2.39-10.73C1329.58,1006.38,1332.92,995.65,1332.14,985.39Z" transform="translate(-1.02 -855.07)" style="fill:#8cb347"/><path d="M1275.24,1018.3a46.92,46.92,0,0,1,3.15-45.69,48.46,48.46,0,0,1-19.93-38.85c0-26.31,22-48.26,48.26-48.26,1.21,0,2.4.07,3.6.16l-.43-.29a55.07,55.07,0,0,0-28.56-5.55l-13.89,2.92a54.69,54.69,0,0,0-20.63,90.3,43.62,43.62,0,0,0-3,19.17,44.43,44.43,0,0,0,8.8,23.22,37.5,37.5,0,0,0-2.51,16.18c1.46,19,15.59,31.37,32.85,34.3a47.56,47.56,0,0,1-11-30.3A46.83,46.83,0,0,1,1275.24,1018.3Z" transform="translate(-1.02 -855.07)" style="fill:#8cb347;mix-blend-mode:multiply"/><line x1="1287.86" y1="225.92" x2="1287.86" y2="90.79" style="fill:#8cb347"/><polygon points="1275.86 225.92 1285.86 90.79 1289.86 90.79 1299.86 225.92 1275.86 225.92" style="fill:#603e2a"/><line x1="1289.45" y1="159.83" x2="1305.3" y2="143.98" style="fill:#8cb347"/><polygon points="1285.91 156.3 1304.71 143.39 1305.89 144.57 1292.99 163.37 1285.91 156.3" style="fill:#603e2a"/><line x1="1289.45" y1="182.02" x2="1273.6" y2="166.17" style="fill:#8cb347"/><polygon points="1285.91 185.56 1273.01 166.76 1274.19 165.58 1292.99 178.48 1285.91 185.56" style="fill:#603e2a"/><line x1="1289.45" y1="136.64" x2="1273.6" y2="120.79" style="fill:#8cb347"/><polygon points="1285.91 140.18 1273.01 121.38 1274.19 120.2 1292.99 133.1 1285.91 140.18" style="fill:#603e2a"/><path d="M727.76,985a40.23,40.23,0,0,0-11.91-25.48,39.92,39.92,0,0,0,2.56-4.41,39.29,39.29,0,0,0,4-20.42c-.06-.38-.13-.75-.19-1.13a39,39,0,0,0-60.61-29.28c-1.08.73-2.13,1.52-3.14,2.36-.59-.59-1.19-1.17-1.82-1.72l-8.08-5.43A37.9,37.9,0,0,0,629,895.72l-9.52,2a37.68,37.68,0,0,0-15.79,10.65c-.71.8-1.37,1.64-2,2.5a33.7,33.7,0,0,0-33.83,27.29c-.2,1-.33,2-.43,3.05a50.62,50.62,0,0,0-6.17,5.84,48.4,48.4,0,0,0-9.3,47.87c.12.34.25.67.38,1a47.93,47.93,0,0,0,61.06,29.38l5.94-3a32.23,32.23,0,0,0,3.17,3.23c6.73,5.93,14.53,7.76,23.27,7.76s16.3-4.51,21.56-11.06c7.13,4.23,15.06,5.68,23.73,5.68,10,0,20.52-6.19,26.93-13.46A40.2,40.2,0,0,0,727.76,985Z" transform="translate(-1.02 -855.07)" style="fill:#8cb347"/><path d="M580.51,987.13q-1.12-8.34-2.24-16.68c0-.46,0-.92.06-1.38a62.49,62.49,0,0,1,8.56-31.65l9.81-12.69A62.5,62.5,0,0,1,615,912.08,63.09,63.09,0,0,1,623,897l-3.61.76a37.68,37.68,0,0,0-15.79,10.65c-.71.81-1.37,1.65-2,2.5a33.7,33.7,0,0,0-33.83,27.3c-.2,1-.33,2-.43,3a50,50,0,0,0-6.17,5.85A48.37,48.37,0,0,0,551.9,995c.12.34.25.68.38,1a47.86,47.86,0,0,0,36.08,31.18,47.51,47.51,0,0,0,23.33-1.27,62.59,62.59,0,0,1-31.18-38.77Z" transform="translate(-1.02 -855.07)" style="fill:#8cb347;mix-blend-mode:multiply"/><line x1="648.41" y1="225.88" x2="648.41" y2="125.03" style="fill:#8cb347"/><polygon points="636.41 225.88 646.41 125.03 650.41 125.03 660.41 225.88 636.41 225.88" style="fill:#603e2a"/><line x1="650" y1="159.79" x2="665.85" y2="143.94" style="fill:#8cb347"/><polygon points="646.47 156.25 665.26 143.35 666.44 144.53 653.54 163.33 646.47 156.25" style="fill:#603e2a"/><line x1="650" y1="181.98" x2="634.15" y2="166.12" style="fill:#8cb347"/><polygon points="646.47 185.51 633.56 166.71 634.74 165.53 653.54 178.44 646.47 185.51" style="fill:#603e2a"/><path d="M416.15,984a40.25,40.25,0,0,0-11.91-25.48,38.88,38.88,0,0,0,2.56-4.4,39.33,39.33,0,0,0,4-20.43c-.06-.37-.13-.75-.19-1.13A39,39,0,0,0,350,903.3a37.42,37.42,0,0,0-3.14,2.37c-.59-.6-1.19-1.18-1.82-1.73l-8.08-5.42a37.7,37.7,0,0,0-19.59-3.81l-9.52,2A37.68,37.68,0,0,0,292,907.36c-.71.8-1.37,1.64-2,2.5a33.7,33.7,0,0,0-33.83,27.29c-.2,1-.33,2-.43,3.05a50.62,50.62,0,0,0-6.17,5.84,48.4,48.4,0,0,0-9.3,47.87c.12.34.25.68.38,1a47.93,47.93,0,0,0,61.06,29.38l5.94-3a32.23,32.23,0,0,0,3.17,3.23c6.73,5.93,14.53,7.76,23.27,7.76s16.3-4.51,21.56-11c7.13,4.23,15.06,5.67,23.73,5.67,10,0,20.52-6.19,26.93-13.46A40.19,40.19,0,0,0,416.15,984Z" transform="translate(-1.02 -855.07)" style="fill:#8cb347"/><path d="M268.9,986.12q-1.12-8.36-2.24-16.69c0-.46,0-.92.06-1.37a62.49,62.49,0,0,1,8.56-31.65l9.81-12.69a62.34,62.34,0,0,1,18.29-12.66A63,63,0,0,1,311.43,896l-3.61.76A37.68,37.68,0,0,0,292,907.41c-.71.8-1.37,1.64-2,2.5a33.7,33.7,0,0,0-33.83,27.29c-.2,1-.33,2-.43,3a49.86,49.86,0,0,0-6.17,5.84,48.39,48.39,0,0,0-9.3,47.87c.12.33.25.67.38,1a47.94,47.94,0,0,0,59.41,29.92,62.68,62.68,0,0,1-31.18-38.77Z" transform="translate(-1.02 -855.07)" style="fill:#8cb347;mix-blend-mode:multiply"/><line x1="336.8" y1="224.86" x2="336.8" y2="124.02" style="fill:#8cb347"/><polygon points="324.8 224.86 334.8 124.02 338.8 124.02 348.8 224.86 324.8 224.86" style="fill:#603e2a"/><line x1="338.39" y1="158.77" x2="354.24" y2="142.92" style="fill:#8cb347"/><polygon points="334.85 155.24 353.65 142.33 354.83 143.51 341.93 162.31 334.85 155.24" style="fill:#603e2a"/><line x1="338.39" y1="180.96" x2="322.54" y2="165.11" style="fill:#8cb347"/><polygon points="334.85 184.5 321.95 165.7 323.13 164.52 341.93 177.42 334.85 184.5" style="fill:#603e2a"/><path d="M108.13,967.35l-.27-.38a50.8,50.8,0,0,0-8.73-50.48,42.42,42.42,0,0,0-10-50.85L80,859.5a42.74,42.74,0,0,0-22.18-4.31l-10.78,2.26a42.52,42.52,0,0,0-28.32,43.38,42.24,42.24,0,0,0,3.55,14c-.24.25-.49.49-.72.75A51.49,51.49,0,0,0,9,953.21,50.91,50.91,0,0,0,12.05,967a60.2,60.2,0,0,0-4.14,7c-.51,1-1,2.08-1.42,3.13-4,8.34-6.23,20.64-5.22,29.46A57.66,57.66,0,0,0,103.2,1039l.08-.07c6.72-6.53,12-19,13.72-28l.9-15.56A58.08,58.08,0,0,0,108.13,967.35Z" transform="translate(-1.02 -855.07)" style="fill:#8cb347"/><path d="M22.6,1009A51.5,51.5,0,0,1,30,982.5a51.53,51.53,0,0,1-4.3-20.59A52.72,52.72,0,0,1,45,921.43,51.3,51.3,0,0,1,40.76,901a53,53,0,0,1,26.56-45.48,43.94,43.94,0,0,0-9.48-.34l-10.78,2.26a42.52,42.52,0,0,0-28.32,43.38,42.24,42.24,0,0,0,3.55,14c-.24.25-.49.49-.72.75A51.49,51.49,0,0,0,9,953.21,50.91,50.91,0,0,0,12.05,967a60.2,60.2,0,0,0-4.14,7c-.51,1-1,2.08-1.42,3.13-4,8.34-6.23,20.64-5.22,29.46a57.62,57.62,0,0,0,60.92,53.14C39.66,1053.92,22.6,1033.17,22.6,1009Z" transform="translate(-1.02 -855.07)" style="fill:#8cb347;mix-blend-mode:multiply"/><line x1="58.46" y1="224.86" x2="58.46" y2="124.02" style="fill:#8cb347"/><polygon points="46.47 224.86 56.46 124.02 60.47 124.02 70.47 224.86 46.47 224.86" style="fill:#603e2a"/><line x1="60.06" y1="158.77" x2="75.91" y2="142.92" style="fill:#8cb347"/><polygon points="56.52 155.24 75.32 142.33 76.5 143.51 63.59 162.31 56.52 155.24" style="fill:#603e2a"/><line x1="60.06" y1="180.96" x2="44.21" y2="165.11" style="fill:#8cb347"/><polygon points="56.52 184.5 43.62 165.7 44.8 164.52 63.59 177.43 56.52 184.5" style="fill:#603e2a"/><path d="M257.69,901.2c-5.45-7-13.92-7.44-19.25-6.86-5.33-.58-13.81-.16-19.25,6.86-14.66,18.92-85.94,148.63,19.25,147.61C343.63,1049.83,272.35,920.12,257.69,901.2Z" transform="translate(-1.02 -855.07)" style="fill:#8cb347"/><path d="M215.49,1030.06c-10.2-23.51-14.08-48.39-10.26-73.25,1.86-12.08,3.48-24.47,8.64-35.95,4-9,8.65-18.06,15.19-26a17.59,17.59,0,0,0-9.87,6.33c-14.18,18.3-81.3,140.18,9.41,147.29C222.56,1043.46,218.61,1037.24,215.49,1030.06Z" transform="translate(-1.02 -855.07)" style="fill:#8cb347;mix-blend-mode:multiply"/><line x1="239.96" y1="225.9" x2="239.96" y2="90.77" style="fill:#8cb347"/><polygon points="227.96 225.9 237.96 90.77 241.96 90.77 251.96 225.9 227.96 225.9" style="fill:#603e2a"/><line x1="241.55" y1="159.82" x2="257.41" y2="143.96" style="fill:#8cb347"/><polygon points="238.02 156.28 256.82 143.38 258 144.55 245.09 163.35 238.02 156.28" style="fill:#603e2a"/><line x1="241.55" y1="182" x2="225.7" y2="166.15" style="fill:#8cb347"/><polygon points="238.02 185.54 225.11 166.74 226.29 165.56 245.09 178.47 238.02 185.54" style="fill:#603e2a"/><line x1="241.55" y1="136.62" x2="225.7" y2="120.77" style="fill:#8cb347"/><polygon points="238.02 140.16 225.11 121.36 226.29 120.18 245.09 133.09 238.02 140.16" style="fill:#603e2a"/><path d="M520,967.71c6.6-8.23,10.29-18.94,9.51-29.15a40.66,40.66,0,0,0-13.61-27.23,38.74,38.74,0,0,0-5.16-3.84,21.59,21.59,0,0,0,0-3c-1.08-14.11-13-22.62-26.39-22.62a19.48,19.48,0,0,0-4.68.58,37.66,37.66,0,0,0-7-8.27c-8-7-17.25-9.22-27.63-9.22-11.4,0-21.27,6.57-27.51,15.7a51.71,51.71,0,0,0-10.69-1c-18.46,0-32.72,18-33.12,35.39-.45.28-.91.33-1.36.63a1.49,1.49,0,0,0,0-.21,47,47,0,0,0-7.61,6.91,39.78,39.78,0,0,0,3.61,56v0c2.9,2.14,5.53,3.88,8.35,5.63.06,0,.11.08.16.11l.05,0,.73.45.25.11c0,1.08,0,2.17.08,3.24a39.08,39.08,0,0,0,13.08,26.17c8.27,7.28,17.86,9.54,28.6,9.54a31.29,31.29,0,0,0,14.75-3.74c6.46,3.67,13.61,4.93,21.41,4.93a30.44,30.44,0,0,0,17.3-5.54,44.7,44.7,0,0,0,18,3.26c20,0,35.2-20.65,33.77-39.42A36.73,36.73,0,0,0,520,967.71Z" transform="translate(-1.02 -855.07)" style="fill:#8cb347"/><polygon points="371.32 60.37 371.32 60.37 371.33 60.37 371.32 60.37" style="fill:#8cb347"/><g style="mix-blend-mode:multiply"><path d="M477,882.8c.53-.66,1.07-1.31,1.63-1.94a37.71,37.71,0,0,0-5.94-6.69c-8-7-17.25-9.22-27.63-9.22-11.4,0-21.27,6.57-27.51,15.7a51.71,51.71,0,0,0-10.69-1c-18.46,0-32.72,18-33.12,35.39-.45.28-.91.33-1.36.63a1.49,1.49,0,0,0,0-.21,47,47,0,0,0-7.61,6.91,39.78,39.78,0,0,0,3.61,56v0c2.9,2.14,5.53,3.88,8.35,5.63.06,0,.11.08.16.11l.05,0,.73.45.25.11c0,1.08,0,2.17.08,3.24a39.08,39.08,0,0,0,13.08,26.17c8.27,7.28,17.86,9.54,28.6,9.54a31.05,31.05,0,0,0,13.58-3.17,48.87,48.87,0,0,1-32.08-35.08A47.73,47.73,0,0,1,387,951.75c0-25.61,21-47,46.45-47.79a48.22,48.22,0,0,1,39.7-21.34C474.44,882.62,475.72,882.7,477,882.8Z" transform="translate(-1.02 -855.07)" style="fill:#8cb347"/><polygon points="371.32 60.37 371.32 60.37 371.33 60.37 371.32 60.37" style="fill:#8cb347"/></g><line x1="450.14" y1="225.76" x2="450.14" y2="124.91" style="fill:#8cb347"/><polygon points="438.14 225.76 448.14 124.91 452.14 124.91 462.14 225.76 438.14 225.76" style="fill:#603e2a"/><line x1="451.73" y1="159.67" x2="467.58" y2="143.82" style="fill:#8cb347"/><polygon points="448.19 156.13 466.99 143.23 468.17 144.41 455.26 163.21 448.19 156.13" style="fill:#603e2a"/><line x1="451.73" y1="181.86" x2="435.88" y2="166" style="fill:#8cb347"/><polygon points="448.19 185.39 435.29 166.59 436.47 165.41 455.26 178.32 448.19 185.39" style="fill:#603e2a"/><path d="M602.94,985.39a44.18,44.18,0,0,0-4.44-16.12,54.7,54.7,0,0,0-6-76l-11.78-7.91a55.07,55.07,0,0,0-28.56-5.55l-13.89,2.92A54.69,54.69,0,0,0,517.61,973a43.62,43.62,0,0,0-3,19.17,44.43,44.43,0,0,0,8.8,23.22,37.5,37.5,0,0,0-2.51,16.18c1.67,21.82,20.12,35,40.81,35s36.45-21.37,35-40.8a37.8,37.8,0,0,0-2.39-10.73C600.38,1006.38,603.72,995.65,602.94,985.39Z" transform="translate(-1.02 -855.07)" style="fill:#8cb347"/><path d="M546,1018.3a46.92,46.92,0,0,1,3.15-45.69,48.46,48.46,0,0,1-19.93-38.85c0-26.31,22-48.26,48.26-48.26,1.21,0,2.4.07,3.59.16l-.42-.29a55.07,55.07,0,0,0-28.56-5.55l-13.89,2.92A54.69,54.69,0,0,0,517.61,973a43.62,43.62,0,0,0-3,19.17,44.43,44.43,0,0,0,8.8,23.22,37.5,37.5,0,0,0-2.51,16.18c1.46,19,15.59,31.37,32.85,34.3a47.56,47.56,0,0,1-11-30.3A46.83,46.83,0,0,1,546,1018.3Z" transform="translate(-1.02 -855.07)" style="fill:#8cb347;mix-blend-mode:multiply"/><line x1="558.66" y1="225.92" x2="558.66" y2="90.79" style="fill:#8cb347"/><polygon points="546.65 225.92 556.65 90.79 560.65 90.79 570.65 225.92 546.65 225.92" style="fill:#603e2a"/><line x1="560.25" y1="159.83" x2="576.1" y2="143.98" style="fill:#8cb347"/><polygon points="556.71 156.3 575.51 143.39 576.69 144.57 563.78 163.37 556.71 156.3" style="fill:#603e2a"/><line x1="560.25" y1="182.02" x2="544.4" y2="166.17" style="fill:#8cb347"/><polygon points="556.71 185.56 543.81 166.76 544.99 165.58 563.78 178.48 556.71 185.56" style="fill:#603e2a"/><line x1="560.25" y1="136.64" x2="544.4" y2="120.79" style="fill:#8cb347"/><polygon points="556.71 140.18 543.81 121.38 544.99 120.2 563.78 133.1 556.71 140.18" style="fill:#603e2a"/><path d="M829.59,974.34a39.59,39.59,0,0,0-13.25-26.5,36.48,36.48,0,0,0-8.32-5.55,39.29,39.29,0,0,0,.61-10.19,41.59,41.59,0,0,0-13.92-27.85c-7.57-6.67-16.17-9.37-25.7-10A39.52,39.52,0,0,0,758,878c-8.38-7.38-18.09-9.67-29-9.67-20.87,0-36.84,21-36.25,40.63a40.57,40.57,0,0,0-16.89,26.51,40,40,0,0,0-11.41,67.19l8.62,5.79a40.32,40.32,0,0,0,20.91,4.06l10.16-2.13a43.15,43.15,0,0,0,5.1-2.22c.52.5,1,1,1.59,1.46l10.34,7a48.31,48.31,0,0,0,25.08,4.87l12.19-2.56a48.4,48.4,0,0,0,13.12-7.07c6.62,3.51,13.92,4.74,21.84,4.74C814.86,1016.56,831.13,994.44,829.59,974.34Z" transform="translate(-1.02 -855.07)" style="fill:#8cb347"/><path d="M688.57,974.49c0-44.36,31.36-82.5,72.78-93.13A39.34,39.34,0,0,0,758,878c-8.38-7.38-18.09-9.67-29-9.67-20.87,0-36.84,21-36.25,40.63a40.57,40.57,0,0,0-16.89,26.51,40,40,0,0,0-11.41,67.19l8.62,5.79a40.32,40.32,0,0,0,20.91,4.06l2.4-.5A94,94,0,0,1,688.57,974.49Z" transform="translate(-1.02 -855.07)" style="fill:#8cb347;mix-blend-mode:multiply"/><line x1="745.22" y1="225.9" x2="745.22" y2="125.06" style="fill:#8cb347"/><polygon points="733.22 225.9 743.22 125.06 747.22 125.06 757.22 225.9 733.22 225.9" style="fill:#603e2a"/><line x1="746.81" y1="159.82" x2="762.66" y2="143.96" style="fill:#8cb347"/><polygon points="743.28 156.28 762.07 143.38 763.25 144.55 750.35 163.35 743.28 156.28" style="fill:#603e2a"/><line x1="746.81" y1="182" x2="730.96" y2="166.15" style="fill:#8cb347"/><polygon points="743.28 185.54 730.37 166.74 731.55 165.56 750.35 178.47 743.28 185.54" style="fill:#603e2a"/><path d="M1042.42,951.64A80.08,80.08,0,0,0,1029,913l-13.52-15.38A81.45,81.45,0,1,0,922.35,1029c5.78,3.49,33,11,21.57,7.44a4.53,4.53,0,0,0,1.21.22,203.62,203.62,0,0,0,21.79,1.26c.23,0,.46,0,.68-.05,7.24-.89,14.35-3,21.45-4.49a80.09,80.09,0,0,0,53.37-81.73Z" transform="translate(-1.02 -855.07)" style="fill:#8cb347"/><path d="M945.13,1036.65c1.49.17,3,.3,4.46.44-24.19-17.06-40.23-45.19-40.23-76.51,0-37.27,22.73-70,54.87-85a80.45,80.45,0,0,0-32.62,4.33A81.05,81.05,0,0,0,922.35,1029c5.78,3.49,33,11,21.57,7.44A4.53,4.53,0,0,0,945.13,1036.65Z" transform="translate(-1.02 -855.07)" style="fill:#8cb347;mix-blend-mode:multiply"/><line x1="959.01" y1="225.89" x2="959.01" y2="125.05" style="fill:#8cb347"/><polygon points="947.01 225.9 957.01 125.05 961.01 125.05 971.01 225.9 947.01 225.9" style="fill:#603e2a"/><line x1="960.6" y1="159.81" x2="976.45" y2="143.96" style="fill:#8cb347"/><polygon points="957.07 156.27 975.87 143.37 977.04 144.54 964.14 163.34 957.07 156.27" style="fill:#603e2a"/><line x1="960.6" y1="181.99" x2="944.75" y2="166.14" style="fill:#8cb347"/><polygon points="957.07 185.53 944.16 166.73 945.34 165.55 964.14 178.46 957.07 185.53" style="fill:#603e2a"/><path d="M1246.94,967.71c6.59-8.23,10.29-18.94,9.51-29.15a40.66,40.66,0,0,0-13.61-27.23,38.74,38.74,0,0,0-5.16-3.84,23.24,23.24,0,0,0,0-3c-1.08-14.11-13-22.62-26.4-22.62a19.6,19.6,0,0,0-4.68.58,37.61,37.61,0,0,0-7-8.27c-8-7-17.26-9.22-27.63-9.22-11.41,0-21.27,6.57-27.52,15.7a51.61,51.61,0,0,0-10.68-1c-18.46,0-32.72,18-33.12,35.39-.46.28-.92.33-1.36.63a1.49,1.49,0,0,1,0-.21,47,47,0,0,0-7.61,6.91,39.78,39.78,0,0,0,3.61,56v0c2.9,2.14,5.53,3.88,8.36,5.63l.16.11,0,0,.72.45.25.11a31.79,31.79,0,0,0,.09,3.24,39,39,0,0,0,13.08,26.17c8.27,7.28,17.86,9.54,28.6,9.54a31.32,31.32,0,0,0,14.75-3.74c6.45,3.67,13.61,4.93,21.41,4.93a30.44,30.44,0,0,0,17.3-5.54,44.68,44.68,0,0,0,18,3.26c20,0,35.21-20.65,33.77-39.42A36.72,36.72,0,0,0,1246.94,967.71Z" transform="translate(-1.02 -855.07)" style="fill:#8cb347"/><polygon points="1098.22 60.37 1098.22 60.37 1098.22 60.37 1098.22 60.37" style="fill:#8cb347"/><g style="mix-blend-mode:multiply"><path d="M1203.89,882.8c.53-.66,1.07-1.31,1.63-1.94a38.11,38.11,0,0,0-5.94-6.69c-8-7-17.26-9.22-27.63-9.22-11.41,0-21.27,6.57-27.52,15.7a51.61,51.61,0,0,0-10.68-1c-18.46,0-32.72,18-33.12,35.39-.46.28-.92.33-1.36.63a1.49,1.49,0,0,1,0-.21,47,47,0,0,0-7.61,6.91,39.78,39.78,0,0,0,3.61,56v0c2.9,2.14,5.53,3.88,8.36,5.63l.16.11,0,0,.72.45.25.11a31.79,31.79,0,0,0,.09,3.24,39,39,0,0,0,13.08,26.17c8.27,7.28,17.86,9.54,28.6,9.54a31.05,31.05,0,0,0,13.58-3.17,48.85,48.85,0,0,1-32.08-35.08,47.73,47.73,0,0,1-14.17-33.72c0-25.61,21-47,46.46-47.79A48.2,48.2,0,0,1,1200,882.62C1201.34,882.62,1202.62,882.7,1203.89,882.8Z" transform="translate(-1.02 -855.07)" style="fill:#8cb347"/><polygon points="1098.22 60.37 1098.22 60.37 1098.22 60.37 1098.22 60.37" style="fill:#8cb347"/></g><line x1="1177.03" y1="225.76" x2="1177.03" y2="124.91" style="fill:#8cb347"/><polygon points="1165.03 225.76 1175.03 124.91 1179.03 124.91 1189.03 225.76 1165.03 225.76" style="fill:#603e2a"/><line x1="1178.63" y1="159.67" x2="1194.48" y2="143.82" style="fill:#8cb347"/><polygon points="1175.09 156.13 1193.89 143.23 1195.07 144.41 1182.16 163.21 1175.09 156.13" style="fill:#603e2a"/><line x1="1178.63" y1="181.86" x2="1162.77" y2="166" style="fill:#8cb347"/><polygon points="1175.09 185.39 1162.18 166.59 1163.36 165.41 1182.16 178.32 1175.09 185.39" style="fill:#603e2a"/><path d="M1397.26,901.22c-5.45-7-13.92-7.45-19.25-6.86-5.33-.59-13.8-.16-19.25,6.86-14.66,18.92-85.94,148.62,19.25,147.61C1483.2,1049.84,1411.92,920.14,1397.26,901.22Z" transform="translate(-1.02 -855.07)" style="fill:#8cb347"/><path d="M1355.06,1030.08c-10.2-23.51-14.08-48.39-10.26-73.26,1.86-12.07,3.48-24.47,8.64-35.94,4-9,8.65-18.06,15.19-26a17.63,17.63,0,0,0-9.87,6.33c-14.18,18.29-81.29,140.18,9.41,147.28C1362.13,1043.48,1358.18,1037.26,1355.06,1030.08Z" transform="translate(-1.02 -855.07)" style="fill:#8cb347;mix-blend-mode:multiply"/><line x1="1379.53" y1="225.92" x2="1379.53" y2="90.79" style="fill:#8cb347"/><polygon points="1367.53 225.92 1377.53 90.79 1381.53 90.79 1391.53 225.92 1367.53 225.92" style="fill:#603e2a"/><line x1="1381.13" y1="159.83" x2="1396.98" y2="143.98" style="fill:#8cb347"/><polygon points="1377.59 156.3 1396.39 143.39 1397.57 144.57 1384.66 163.37 1377.59 156.3" style="fill:#603e2a"/><line x1="1381.13" y1="182.02" x2="1365.27" y2="166.17" style="fill:#8cb347"/><polygon points="1377.59 185.56 1364.68 166.76 1365.86 165.58 1384.66 178.48 1377.59 185.56" style="fill:#603e2a"/><line x1="1381.13" y1="136.64" x2="1365.27" y2="120.79" style="fill:#8cb347"/><polygon points="1377.59 140.18 1364.68 121.38 1365.86 120.2 1384.66 133.1 1377.59 140.18" style="fill:#603e2a"/><path d="M1652.48,974.36a39.6,39.6,0,0,0-13.24-26.5,36.75,36.75,0,0,0-8.33-5.55,38.83,38.83,0,0,0,.61-10.19,41.61,41.61,0,0,0-13.92-27.85c-7.57-6.66-16.17-9.37-25.69-10a39.62,39.62,0,0,0-11-16.23c-8.39-7.39-18.1-9.67-29-9.67-20.88,0-36.85,21-36.25,40.63a40.54,40.54,0,0,0-16.9,26.5,40,40,0,0,0-11.4,67.2q4.31,2.89,8.62,5.78a40.27,40.27,0,0,0,20.9,4.07l10.16-2.14a41.7,41.7,0,0,0,5.11-2.22c.51.5,1,1,1.58,1.47l10.34,7a48.43,48.43,0,0,0,25.08,4.87l12.19-2.57a48.35,48.35,0,0,0,13.12-7.06c6.62,3.51,13.92,4.73,21.84,4.73C1637.75,1016.58,1654,994.47,1652.48,974.36Z" transform="translate(-1.02 -855.07)" style="fill:#8cb347"/><path d="M1511.47,974.52c0-44.36,31.35-82.5,72.77-93.13a37.83,37.83,0,0,0-3.35-3.35c-8.39-7.39-18.1-9.67-29-9.67-20.88,0-36.85,21-36.25,40.63a40.54,40.54,0,0,0-16.9,26.5,40,40,0,0,0-11.4,67.2q4.31,2.89,8.62,5.78a40.27,40.27,0,0,0,20.9,4.07l2.41-.51A93.94,93.94,0,0,1,1511.47,974.52Z" transform="translate(-1.02 -855.07)" style="fill:#8cb347;mix-blend-mode:multiply"/><line x1="1568.11" y1="225.93" x2="1568.11" y2="125.08" style="fill:#8cb347"/><polygon points="1556.11 225.93 1566.11 125.08 1570.11 125.08 1580.11 225.93 1556.11 225.93" style="fill:#603e2a"/><line x1="1569.71" y1="159.84" x2="1585.56" y2="143.99" style="fill:#8cb347"/><polygon points="1566.17 156.31 1584.97 143.4 1586.15 144.58 1573.24 163.38 1566.17 156.31" style="fill:#603e2a"/><line x1="1569.71" y1="182.03" x2="1553.85" y2="166.18" style="fill:#8cb347"/><polygon points="1566.17 185.56 1553.26 166.76 1554.44 165.59 1573.24 178.49 1566.17 185.56" style="fill:#603e2a"/><path d="M1708.54,968.38l-.27-.37a50.82,50.82,0,0,0-8.73-50.49,42.42,42.42,0,0,0-10-50.85l-9.15-6.14a42.78,42.78,0,0,0-22.17-4.31l-10.78,2.27a42.41,42.41,0,0,0-24.78,57.33c-.23.25-.48.49-.71.75a51.45,51.45,0,0,0-12.57,37.67,50.37,50.37,0,0,0,3,13.76,61,61,0,0,0-4.14,7c-.51,1-1,2.09-1.42,3.14-4,8.33-6.23,20.63-5.23,29.45A57.67,57.67,0,0,0,1703.61,1040l.07-.07c6.72-6.54,12-19,13.72-28q.46-7.79.91-15.56A58.08,58.08,0,0,0,1708.54,968.38Z" transform="translate(-1.02 -855.07)" style="fill:#8cb347"/><path d="M1623,1010.07a51.45,51.45,0,0,1,7.41-26.53,51.58,51.58,0,0,1-4.31-20.59,52.73,52.73,0,0,1,19.3-40.49,51.43,51.43,0,0,1-4.24-20.42,52.94,52.94,0,0,1,26.56-45.47,43.31,43.31,0,0,0-9.48-.35l-10.78,2.27a42.41,42.41,0,0,0-24.78,57.33c-.23.25-.48.49-.71.75a51.45,51.45,0,0,0-12.57,37.67,50.37,50.37,0,0,0,3,13.76,61,61,0,0,0-4.14,7c-.51,1-1,2.09-1.42,3.14-4,8.33-6.23,20.63-5.23,29.45a57.74,57.74,0,0,0,46.54,52.2,57.08,57.08,0,0,0,14.39.94C1640.07,1055,1623,1034.21,1623,1010.07Z" transform="translate(-1.02 -855.07)" style="fill:#8cb347;mix-blend-mode:multiply"/><line x1="1658.87" y1="225.89" x2="1658.87" y2="125.05" style="fill:#8cb347"/><polygon points="1646.87 225.9 1656.87 125.05 1660.87 125.05 1670.87 225.9 1646.87 225.9" style="fill:#603e2a"/><line x1="1660.47" y1="159.81" x2="1676.32" y2="143.96" style="fill:#8cb347"/><polygon points="1656.93 156.27 1675.73 143.37 1676.91 144.54 1664 163.34 1656.93 156.27" style="fill:#603e2a"/><line x1="1660.47" y1="181.99" x2="1644.61" y2="166.14" style="fill:#8cb347"/><polygon points="1656.93 185.53 1644.02 166.73 1645.2 165.55 1664 178.46 1656.93 185.53" style="fill:#603e2a"/><path d="M1919.77,951.66a80.08,80.08,0,0,0-13.47-38.61q-6.75-7.69-13.52-15.38A81.45,81.45,0,1,0,1799.7,1029c5.78,3.49,33,11,21.57,7.44a5.49,5.49,0,0,0,1.21.22,209,209,0,0,0,21.79,1.26,5.05,5.05,0,0,0,.68-.06c7.24-.88,14.35-3,21.45-4.49a80.06,80.06,0,0,0,53.37-81.72Z" transform="translate(-1.02 -855.07)" style="fill:#8cb347"/><path d="M1822.48,1036.67c1.49.16,3,.3,4.46.43-24.19-17-40.23-45.18-40.23-76.5,0-37.28,22.73-70,54.87-85a80.45,80.45,0,0,0-32.62,4.32A81.06,81.06,0,0,0,1799.7,1029c5.78,3.49,33,11,21.57,7.44A5.49,5.49,0,0,0,1822.48,1036.67Z" transform="translate(-1.02 -855.07)" style="fill:#8cb347;mix-blend-mode:multiply"/><line x1="1836.36" y1="225.91" x2="1836.36" y2="125.07" style="fill:#8cb347"/><polygon points="1824.36 225.91 1834.36 125.07 1838.36 125.07 1848.36 225.91 1824.36 225.91" style="fill:#603e2a"/><line x1="1837.95" y1="159.82" x2="1853.8" y2="143.97" style="fill:#8cb347"/><polygon points="1834.42 156.29 1853.21 143.38 1854.39 144.56 1841.49 163.36 1834.42 156.29" style="fill:#603e2a"/><line x1="1837.95" y1="182.01" x2="1822.1" y2="166.16" style="fill:#8cb347"/><polygon points="1834.42 185.55 1821.51 166.75 1822.69 165.57 1841.49 178.47 1834.42 185.55" style="fill:#603e2a"/><path d="M235.66,951.62A79.8,79.8,0,0,0,222.19,913l-13.51-15.38a81.27,81.27,0,0,0-14.44-10.1,80.64,80.64,0,0,0-69.39-7.63A81.06,81.06,0,0,0,115.6,1029c5.77,3.49,33,11,21.56,7.44a5,5,0,0,0,1.21.21,206.27,206.27,0,0,0,21.79,1.27,5.05,5.05,0,0,0,.68-.06c7.24-.88,14.35-3,21.46-4.49a80.07,80.07,0,0,0,53.36-81.73Z" transform="translate(-1.02 -855.07)" style="fill:#8cb347"/><path d="M138.37,1036.63c1.49.17,3,.31,4.46.44-24.19-17.06-40.23-45.19-40.23-76.5,0-37.28,22.73-70,54.87-85a80.63,80.63,0,0,0-32.62,4.33A81.06,81.06,0,0,0,115.6,1029c5.77,3.49,33,11,21.56,7.44A5,5,0,0,0,138.37,1036.63Z" transform="translate(-1.02 -855.07)" style="fill:#8cb347;mix-blend-mode:multiply"/><line x1="152.25" y1="225.88" x2="152.25" y2="125.03" style="fill:#8cb347"/><polygon points="140.25 225.88 150.25 125.03 154.25 125.03 164.25 225.88 140.25 225.88" style="fill:#603e2a"/><line x1="153.84" y1="159.79" x2="169.7" y2="143.94" style="fill:#8cb347"/><polygon points="150.31 156.26 169.11 143.35 170.29 144.53 157.38 163.33 150.31 156.26" style="fill:#603e2a"/><line x1="153.84" y1="181.98" x2="137.99" y2="166.12" style="fill:#8cb347"/><polygon points="150.31 185.51 137.4 166.71 138.58 165.53 157.38 178.44 150.31 185.51" style="fill:#603e2a"/><path d="M932.32,979.57a32,32,0,0,0-6.72-17.21,32.6,32.6,0,0,0-8.1-38.21l-7-4.73a32.88,32.88,0,0,0-12.93-3.35c-4.62-8.43-14-13.26-24.24-13.26a21.51,21.51,0,0,0-14.55,5.94L852,904.21a40.88,40.88,0,0,0-21.23-4.13l-10.33,2.17a40.87,40.87,0,0,0-17.11,11.54l-.68.8a36.25,36.25,0,0,0-11.1-1.54c-15.1,0-26.56,15.58-25.48,29.74a27.91,27.91,0,0,0,8.9,18.26,45,45,0,0,0,11.89,51.13l9.72,6.53a45.55,45.55,0,0,0,23.56,4.58l1-.21c5.43,3.87,11.58,5.14,18.37,5.14a23.26,23.26,0,0,0,14.16-5l7.77.45c5.34,4.11,11.43,5.43,18.19,5.43,9.73,0,17.87-6.77,21.83-15.32l1.57,0C920.37,1013.82,933.57,995.88,932.32,979.57Z" transform="translate(-1.02 -855.07)" style="fill:#8cb347"/><path d="M845.36,1018.44c-28.62,0-52.5-23.88-52.5-52.5a52.44,52.44,0,0,1,16.41-37.85,53.53,53.53,0,0,1,28.94-20.72,50.88,50.88,0,0,1,4.95-6.32,41.13,41.13,0,0,0-12.42-1l-10.33,2.17a40.87,40.87,0,0,0-17.11,11.54l-.68.8a36.25,36.25,0,0,0-11.1-1.54c-15.1,0-26.56,15.58-25.48,29.74a27.91,27.91,0,0,0,8.9,18.26,45,45,0,0,0,11.89,51.13l9.72,6.53a45.55,45.55,0,0,0,23.56,4.58l1-.21c5.43,3.87,11.58,5.14,18.37,5.14a23.26,23.26,0,0,0,14.16-5l6.31.37a53,53,0,0,1-9.79-5.4C848.57,1018.36,847,1018.44,845.36,1018.44Z" transform="translate(-1.02 -855.07)" style="fill:#8cb347;mix-blend-mode:multiply"/><path d="M877.67,1027.59a51.53,51.53,0,0,1-14.82-2.86,28.12,28.12,0,0,0,14.89,4.35C877.71,1028.58,877.68,1028.09,877.67,1027.59Z" transform="translate(-1.02 -855.07)" style="fill:#8cb347;mix-blend-mode:multiply"/><line x1="857.16" y1="225.9" x2="857.16" y2="125.06" style="fill:#8cb347"/><polygon points="845.16 225.9 855.15 125.06 859.16 125.06 869.16 225.9 845.16 225.9" style="fill:#603e2a"/><line x1="858.75" y1="159.82" x2="874.6" y2="143.96" style="fill:#8cb347"/><polygon points="855.21 156.28 874.01 143.38 875.19 144.55 862.29 163.35 855.21 156.28" style="fill:#603e2a"/><line x1="858.75" y1="182" x2="842.9" y2="166.15" style="fill:#8cb347"/><polygon points="855.21 185.54 842.31 166.74 843.49 165.56 862.28 178.47 855.21 185.54" style="fill:#603e2a"/><path d="M1163.39,974.34a39.59,39.59,0,0,0-13.25-26.5,36.53,36.53,0,0,0-8.33-5.55,38.43,38.43,0,0,0,.61-10.19,41.54,41.54,0,0,0-13.92-27.85c-7.57-6.67-16.17-9.37-25.69-10a39.72,39.72,0,0,0-11-16.24c-8.38-7.38-18.09-9.67-29-9.67-20.87,0-36.85,21-36.25,40.63a40.58,40.58,0,0,0-16.9,26.51,40,40,0,0,0-11.4,67.19l8.62,5.79a40.27,40.27,0,0,0,20.9,4.06l10.17-2.13a43.15,43.15,0,0,0,5.1-2.22c.52.5,1,1,1.58,1.46l10.35,7a48.29,48.29,0,0,0,25.07,4.87l12.19-2.56a48.11,48.11,0,0,0,13.12-7.07c6.62,3.51,13.92,4.74,21.85,4.74C1148.65,1016.56,1164.92,994.44,1163.39,974.34Z" transform="translate(-1.02 -855.07)" style="fill:#8cb347"/><path d="M1022.37,974.49c0-44.36,31.35-82.5,72.78-93.13a39.34,39.34,0,0,0-3.36-3.35c-8.38-7.38-18.09-9.67-29-9.67-20.87,0-36.85,21-36.25,40.63a40.58,40.58,0,0,0-16.9,26.51,40,40,0,0,0-11.4,67.19l8.62,5.79a40.27,40.27,0,0,0,20.9,4.06l2.41-.5A94,94,0,0,1,1022.37,974.49Z" transform="translate(-1.02 -855.07)" style="fill:#8cb347;mix-blend-mode:multiply"/><line x1="1079.01" y1="225.9" x2="1079.01" y2="125.06" style="fill:#8cb347"/><polygon points="1067.01 225.9 1077.01 125.06 1081.02 125.06 1091.01 225.9 1067.01 225.9" style="fill:#603e2a"/><line x1="1080.61" y1="159.82" x2="1096.46" y2="143.96" style="fill:#8cb347"/><polygon points="1077.07 156.28 1095.87 143.38 1097.05 144.55 1084.14 163.35 1077.07 156.28" style="fill:#603e2a"/><line x1="1080.61" y1="182" x2="1064.76" y2="166.15" style="fill:#8cb347"/><polygon points="1077.07 185.54 1064.17 166.74 1065.35 165.56 1084.14 178.47 1077.07 185.54" style="fill:#603e2a"/><path d="M1512.9,968.41l-.27-.38a50.8,50.8,0,0,0-8.73-50.48,42.42,42.42,0,0,0-10-50.85l-9.15-6.14a42.79,42.79,0,0,0-22.17-4.32l-10.78,2.27a42.41,42.41,0,0,0-24.78,57.33c-.23.26-.48.5-.71.76a51.44,51.44,0,0,0-12.57,37.67,50.53,50.53,0,0,0,3,13.76,60.2,60.2,0,0,0-4.14,7c-.51,1-1,2.08-1.42,3.13-4,8.34-6.23,20.64-5.22,29.46A57.66,57.66,0,0,0,1508,1040l.07-.07c6.73-6.53,12-19,13.72-28q.46-7.77.91-15.55A58.08,58.08,0,0,0,1512.9,968.41Z" transform="translate(-1.02 -855.07)" style="fill:#8cb347"/><path d="M1427.37,1010.09a51.47,51.47,0,0,1,7.41-26.53,51.53,51.53,0,0,1-4.3-20.59,52.75,52.75,0,0,1,19.29-40.48,51.47,51.47,0,0,1-4.24-20.42,53,53,0,0,1,26.56-45.48,44.58,44.58,0,0,0-9.48-.35l-10.78,2.27a42.41,42.41,0,0,0-24.78,57.33c-.23.26-.48.5-.71.76a51.44,51.44,0,0,0-12.57,37.67,50.53,50.53,0,0,0,3,13.76,60.2,60.2,0,0,0-4.14,7c-.51,1-1,2.08-1.42,3.13-4,8.34-6.23,20.64-5.22,29.46a57.62,57.62,0,0,0,60.92,53.14C1444.43,1055,1427.37,1034.23,1427.37,1010.09Z" transform="translate(-1.02 -855.07)" style="fill:#8cb347;mix-blend-mode:multiply"/><line x1="1463.23" y1="225.92" x2="1463.23" y2="125.08" style="fill:#8cb347"/><polygon points="1451.23 225.92 1461.23 125.08 1465.23 125.08 1475.23 225.92 1451.23 225.92" style="fill:#603e2a"/><line x1="1464.83" y1="159.83" x2="1480.68" y2="143.98" style="fill:#8cb347"/><polygon points="1461.29 156.3 1480.09 143.39 1481.27 144.57 1468.36 163.37 1461.29 156.3" style="fill:#603e2a"/><line x1="1464.83" y1="182.02" x2="1448.97" y2="166.17" style="fill:#8cb347"/><polygon points="1461.29 185.56 1448.38 166.76 1449.56 165.58 1468.36 178.48 1461.29 185.56" style="fill:#603e2a"/><path d="M1837.89,967.87c6.59-8.23,10.29-18.94,9.51-29.16a40.7,40.7,0,0,0-13.61-27.23,38.65,38.65,0,0,0-5.16-3.83,23.23,23.23,0,0,0,0-3c-1.08-14.12-13-22.62-26.4-22.62a19,19,0,0,0-4.67.58,37.7,37.7,0,0,0-7-8.27c-8-7-17.26-9.22-27.63-9.22-11.4,0-21.27,6.57-27.52,15.7a51.55,51.55,0,0,0-10.68-1c-18.46,0-32.72,18-33.12,35.39-.46.28-.92.33-1.36.63a1.5,1.5,0,0,1,0-.22,47.5,47.5,0,0,0-7.61,6.92,39.78,39.78,0,0,0,3.61,56.05v0c2.89,2.14,5.52,3.88,8.35,5.62l.16.12,0,0,.72.46.25.11c0,1.08,0,2.16.09,3.24a39,39,0,0,0,13.08,26.16c8.27,7.29,17.86,9.55,28.6,9.55a31.32,31.32,0,0,0,14.75-3.74c6.45,3.67,13.61,4.92,21.41,4.92a30.43,30.43,0,0,0,17.3-5.53,44.7,44.7,0,0,0,18,3.26c20,0,35.2-20.65,33.76-39.42A36.72,36.72,0,0,0,1837.89,967.87Z" transform="translate(-1.02 -855.07)" style="fill:#8cb347"/><polygon points="1689.17 60.53 1689.17 60.53 1689.17 60.53 1689.17 60.53" style="fill:#8cb347"/><g style="mix-blend-mode:multiply"><path d="M1794.84,883c.53-.66,1.07-1.31,1.63-1.94a37.75,37.75,0,0,0-5.94-6.69c-8-7-17.26-9.22-27.63-9.22-11.4,0-21.27,6.57-27.52,15.7a51.55,51.55,0,0,0-10.68-1c-18.46,0-32.72,18-33.12,35.39-.46.28-.92.33-1.36.63a1.5,1.5,0,0,1,0-.22,47.5,47.5,0,0,0-7.61,6.92,39.78,39.78,0,0,0,3.61,56.05v0c2.89,2.14,5.52,3.88,8.35,5.62l.16.12,0,0,.72.46.25.11c0,1.08,0,2.16.09,3.24a39,39,0,0,0,13.08,26.16c8.27,7.29,17.86,9.55,28.6,9.55a31.19,31.19,0,0,0,13.58-3.17A48.86,48.86,0,0,1,1719,985.62a47.69,47.69,0,0,1-14.17-33.71c0-25.62,21-47,46.46-47.8A48.22,48.22,0,0,1,1791,882.78C1792.29,882.78,1793.57,882.85,1794.84,883Z" transform="translate(-1.02 -855.07)" style="fill:#8cb347"/><polygon points="1689.17 60.53 1689.17 60.53 1689.17 60.53 1689.17 60.53" style="fill:#8cb347"/></g><line x1="1767.98" y1="225.92" x2="1767.98" y2="125.07" style="fill:#8cb347"/><polygon points="1755.98 225.91 1765.98 125.07 1769.98 125.07 1779.98 225.91 1755.98 225.91" style="fill:#603e2a"/><line x1="1769.58" y1="159.83" x2="1785.43" y2="143.98" style="fill:#8cb347"/><polygon points="1766.04 156.29 1784.84 143.39 1786.02 144.56 1773.11 163.36 1766.04 156.29" style="fill:#603e2a"/><line x1="1769.58" y1="182.01" x2="1753.73" y2="166.16" style="fill:#8cb347"/><polygon points="1766.04 185.55 1753.14 166.75 1754.32 165.57 1773.11 178.48 1766.04 185.55" style="fill:#603e2a"/></g></g></svg>