<?xml version="1.0" encoding="utf-8"?>
<!-- Generator: Adobe Illustrator 25.0.1, SVG Export Plug-In . SVG Version: 6.00 Build 0)  -->
<svg version="1.1" id="Layer_1" xmlns="http://www.w3.org/2000/svg" xmlns:xlink="http://www.w3.org/1999/xlink" x="0px" y="0px"
	 viewBox="0 0 1025.25562 933.79211" style="enable-background:new 0 0 1025.25562 933.79211;" xml:space="preserve">
<style type="text/css">
	.st0{fill:#7C5E51;}
	.st1{fill:#D3C0B2;}
	.st2{fill:none;}
	.st3{fill:#EFF5ED;}
	.st4{fill:#5F9952;}
	.st5{fill:#FFFFFF;}
	.st6{fill:#CEB69F;}
	.st7{fill:#70534B;}
	.st8{fill:#EAD8C7;}
	.st9{fill:#EAE1D3;}
	.st10{fill:#FCF4E6;}
	.st11{fill:#DDCDBF;}
	.st12{fill:#75584E;}
	.st13{fill:#575756;}
</style>
<g>
	<path class="st0" d="M846.39923,576.17865c-1.55243-12.8457-9.19788-21.22852-14.5921-66.32431
		c-2.21216-18.74469-4.07513-43.8927-4.96765-78.35492c-0.9314-35.82037,5.93787-98.76831-0.388-121.47137
		c-1.20306-8.22742-6.05414-16.02802-15.6012-23.05237c-46.91968-34.4234-87.3197-45.17346-87.3197-45.17346l-16.22205,7.45123
		c0.00238,0.00116,0.00476,0.00281,0.00714,0.00397l-3.25342,1.51056l-9.11639,4.21509
		c-0.02277-17.99664-1.45465-32.02625-1.46149-32.09113l0.01349-0.00616c0,0-34.22937-13.62189-103.27008-18.78357
		c-9.8573-0.73737-19.7926,0.62109-29.49475-1.31934c-12.10834-2.44495-106.64642-12.22485-166.95514-2.36725
		c-6.9469,1.12537-13.66077,3.49261-20.5686,4.7345c-36.90717,6.5976-143.70898,27.74841-180.6936,61.86121
		c0,0-14.2041,19.40436-43.58228,30.42615c-10.63354,3.95831-15.29077,8.5766-15.05786,15.48468l0.27173,2.5224
		c1.31958,7.17975,6.59741,14.90271,13.62183,19.90894c0,0,21.6554,8.42163,14.32043,37.9162
		c-0.21179,0.84967-0.30225,1.68726-0.32288,2.51703c0.02002-0.82294,0.10596-1.65387,0.31763-2.50043
		c7.33496-29.49457-14.32031-37.91626-14.32031-37.91626c-7.02441-5.00623-12.30237-12.72913-13.62195-19.90887l-0.27173-2.52246
		c0,0,0,66.24658,2.52271,105.09424c0.50452,7.6452,1.12537,14.24274,1.82385,19.05499
		c4.11377,27.5155-7.41235,52.23663-2.67773,87.74655c2.1344,15.79523,2.52258,31.08588,6.86914,57.94147
		c4.50171,27.9812-0.11646,59.72675-0.11646,59.72675s-9.58569,26.04077,44.39722,32.13373
		c0.00049-0.0047,0.00122-0.0097,0.00159-0.0144c0.77295,0.11536,1.54553,0.19305,2.35681,0.27051
		c0,0,36.94604,7.33466,50.17969,21.34479c-8.69312-41.71942-13.6604-84.17621-14.86353-126.78839
		c-0.09717-3.58807-0.51233-7.70563-2.11572-10.80219c1.61047,3.09845,2.02734,7.22357,2.12451,10.81781
		c1.20312,42.61218,6.17065,85.06897,14.86377,126.78839c0.27173,0.3103,0.54321,0.58197,0.81494,0.89252
		c12.45764,14.59216,37.9162,26.97217,43.11664,24.52716c0,0-0.00543-0.01678-0.00568-0.01727l20.5506-9.95874l1.0509,0.08112
		l-0.47876,30.06854l-0.36481,22.90912c5.47546,8.80988,38.02875,21.52582,50.42963,21.4585l31.59564-35.20599
		c-1.42822,63.08209-1.90314,118.60364,0.84003,118.92139c4.2691,0.50452,8.73193,1.08649,13.35022,1.591
		c14.32043,1.55249,29.99908,2.63898,45.52258,0.5434c0.00049,0.00024,0.00098-0.00281,0.0014-0.00256l0.00214,0.01965
		l0.00641-0.03485c0.03815-0.01703,0.0744-0.21838,0.1087-0.58081l27.25665-145.74506v-93.34131l9.31244-7.24634l23.87708-11.57074
		v58.81342l31.24969,139.01111c0.18359,1.62323,0.37427,3.19489,0.57825,4.65778c5.16162-0.03882,16.45483,1.63013,16.45483,1.63013
		c3.10468,0.776,6.40356,1.16425,9.89618,1.2417c13.0011,0.34937,28.29175-3.53149,42.18512-8.46027
		c7.8783-2.75531,15.29065-5.8988,21.61652-8.77063c-1.16803-30.36761,2.61151-55.69141,6.68066-73.4931
		c-4.0592,17.8017-7.85461,43.12567-6.66766,73.49384c11.52966-5.23907,19.30682-9.62451,19.30682-9.62451
		c-3.27472-19.05524-4.98022-40.78802-5.69647-63.52991c-0.23877-7.8006-0.37524-15.67889-0.37524-23.63464
		c-0.38843,1.0896-0.82739,2.37982-1.29968,3.83661c0.47021-1.45703,0.90509-2.7475,1.28552-3.83728
		c-0.03107-7.33136,0.06299-14.71204,0.17053-22.08295l50.12378,33.61658c0.28284,1.07709,0.8241,1.37103,1.7431,1.17059
		c0.00073-0.00018,0.00146,0,0.00214-0.00018l0.0069,0.0047l0.00757-0.00659c0.00049,0,0.00073-0.00024,0.00116-0.00024
		c2.75555-0.62109,48.70496-18.27905,89.57068-46.57056c17.73566-12.34137,34.53967-26.62299,46.41516-42.41815
		C841.58673,612.5036,848.64996,594.84564,846.39923,576.17865z"/>
	<g>
		<polygon class="st1" points="287.28351,429.81989 480.1066,340.70624 482.34552,625.1322 365.01697,716.42932 
			303.71231,711.69641 288.47733,691.03717 		"/>
		<g>
			<path class="st2" d="M163.20941,381.74643c0.31598,0.6123,0.69568,1.21609,1.10666,1.81561
				c-0.46854-0.68124-0.86884-1.3717-1.2142-2.06955C163.14333,381.5766,163.16631,381.66235,163.20941,381.74643z"/>
		</g>
		<g>
			<path class="st2" d="M317.54434,396.14908c0.01279,0.00613,0.02463,0.01254,0.03741,0.01871l19.52115-9.03043l-19.42923,8.95178
				L317.54434,396.14908z"/>
		</g>
		<g>
			<path class="st2" d="M368.31906,372.76505c-0.03885,0-0.03885,0-0.03885,0l-9.85001,4.56589l13.17352-6.07855
				c-0.00049-0.00024-0.0007-0.00046-0.00119-0.0007L368.31906,372.76505z"/>
		</g>
		<g>
			<polygon class="st2" points="282.20239,412.46631 269.58838,418.28171 285.02139,411.18674 285.02353,411.18579 
				284.99652,411.18579 			"/>
		</g>
		<g>
			<polygon class="st2" points="286.08969,410.69452 288.47519,409.59546 288.47733,409.59451 288.45056,409.59451 			"/>
		</g>
		<g>
			<polygon class="st2" points="311.60507,398.90411 314.16681,397.72 314.16254,397.71786 			"/>
		</g>
		<g>
			<polygon class="st2" points="645.09344,245.19475 647.65045,244.0374 679.41919,229.37682 647.62555,244.03645 			"/>
		</g>
		<g>
			<polygon class="st2" points="530.87476,297.86514 534.33832,296.26364 530.85938,297.86514 			"/>
		</g>
		<g>
			<path class="st2" d="M178.7547,395.13385c-2.47861-1.35349-4.75208-2.75742-6.78465-4.20847
				C174.00121,392.37738,176.27705,393.78036,178.7547,395.13385z"/>
		</g>
		<g>
			<path class="st2" d="M200.71823,404.49518c-4.76866-1.65195-9.38574-3.42206-13.66953-5.31064
				C191.33534,401.07382,195.94649,402.84467,200.71823,404.49518z"/>
		</g>
		<g>
			<path class="st2" d="M211.02184,407.82605c26.63458,8.06375,54.19344,12.44751,54.24934,12.45651
				c-0.00119-0.00497-0.00235-0.00974-0.00354-0.01471l0.00522-0.00235c-0.0976-0.01562-27.64557-4.4039-54.30196-12.45511
				C210.98796,407.81561,211.00478,407.82083,211.02184,407.82605z"/>
		</g>
		<g>
			<path class="st3" d="M302.19684,138.14709c29.08762,0,52.66824-23.58063,52.66824-52.66825
				c0-29.08998-23.58063-52.66872-52.66824-52.66872s-52.66826,23.57874-52.66826,52.66872
				C249.52858,114.56647,273.10922,138.14709,302.19684,138.14709z M302.1973,47.27055
				c21.10132,0,38.20734,17.10603,38.20734,38.20734s-17.10602,38.20734-38.20734,38.20734s-38.20734-17.10603-38.20734-38.20734
				S281.09598,47.27055,302.1973,47.27055z"/>
		</g>
		<g>
			<path class="st4" d="M302.1973,123.68524c21.10132,0,38.20734-17.10603,38.20734-38.20734s-17.10602-38.20734-38.20734-38.20734
				s-38.20734,17.10603-38.20734,38.20734S281.09598,123.68524,302.1973,123.68524z M292.7128,69.17746h12.94635v32.60088h-6.05438
				V74.25595h-6.89197V69.17746z"/>
		</g>
		<g>
			<polygon class="st5" points="299.60477,101.77834 305.65915,101.77834 305.65915,69.17746 292.7128,69.17746 292.7128,74.25595 
				299.60477,74.25595 			"/>
		</g>
		<g>
			<g>
				<path class="st3" d="M783.06348,190.81558c29.0874,0,52.66827-23.58087,52.66827-52.66824
					c0-29.08975-23.58087-52.66897-52.66827-52.66897c-29.08734,0-52.66821,23.57922-52.66821,52.66897
					C730.39526,167.23471,753.97614,190.81558,783.06348,190.81558z M783.06299,99.93904
					c21.10132,0,38.2074,17.10603,38.2074,38.20735s-17.10608,38.20734-38.2074,38.20734
					c-21.10126,0-38.20734-17.10603-38.20734-38.20734S761.96173,99.93904,783.06299,99.93904z"/>
			</g>
			<g>
				<path class="st4" d="M783.06299,176.35373c21.10132,0,38.2074-17.10603,38.2074-38.20734s-17.10608-38.20735-38.2074-38.20735
					c-21.10126,0-38.20734,17.10603-38.20734,38.20735S761.96173,176.35373,783.06299,176.35373z M775.56659,123.0322
					c2.15643-0.9437,4.57062-1.41743,7.24249-1.41743c3.53979,0,6.36328,0.83758,8.47424,2.51272
					c2.11102,1.67515,3.1684,3.96047,3.1684,6.8446c0,1.76988-0.37518,3.43365-1.11804,4.98373
					c-0.74658,1.55386-2.17542,3.32376-4.28638,5.30968l-8.70923,8.28854h15.3681v5.12398H771.6781v-4.05142l12.94635-12.29449
					c1.45911-1.39848,2.44452-2.61504,2.95618-3.65727c0.5116-1.03844,0.76935-2.07309,0.76935-3.09636
					c0-1.51976-0.51166-2.68326-1.53876-3.49051c-1.02325-0.80726-2.52783-1.21278-4.51758-1.21278
					c-3.31995,0-5.86676,1.13319-7.63666,3.39957l-4.23712-3.25934C771.69324,125.30614,773.40631,123.97968,775.56659,123.0322z"/>
			</g>
			<g>
				<path class="st5" d="M782.29364,126.87517c1.98975,0,3.49432,0.40553,4.51758,1.21278
					c1.0271,0.80725,1.53876,1.97075,1.53876,3.49051c0,1.02327-0.25775,2.05792-0.76935,3.09636
					c-0.51166,1.04224-1.49707,2.25879-2.95618,3.65727l-12.94635,12.29449v4.05142h24.02808v-5.12398h-15.3681l8.70923-8.28854
					c2.11096-1.98592,3.53979-3.75581,4.28638-5.30968c0.74286-1.55008,1.11804-3.21385,1.11804-4.98373
					c0-2.88412-1.05737-5.16945-3.1684-6.8446c-2.11096-1.67514-4.93445-2.51272-8.47424-2.51272
					c-2.67188,0-5.08606,0.47374-7.24249,1.41743c-2.16028,0.94748-3.87335,2.27395-5.14673,3.9832l4.23712,3.25935
					C776.42688,128.00836,778.97369,126.87517,782.29364,126.87517z"/>
			</g>
		</g>
		<g>
			<g>
				<path class="st3" d="M783.06348,718.46118c-29.08716,0-52.66846,23.58063-52.66846,52.66852
					c0,29.08783,23.5813,52.66846,52.66846,52.66846c29.08789,0,52.66852-23.58063,52.66852-52.66846
					C835.73199,742.04181,812.15137,718.46118,783.06348,718.46118z M783.06323,809.33655
					c-21.10132,0-38.20734-17.10602-38.20734-38.20734s17.10602-38.20734,38.20734-38.20734s38.20734,17.10602,38.20734,38.20734
					S804.16455,809.33655,783.06323,809.33655z"/>
			</g>
			<g>
				<path class="st4" d="M783.06323,732.92188c-21.10132,0-38.20734,17.10602-38.20734,38.20734
					s17.10602,38.20734,38.20734,38.20734s38.20734-17.10602,38.20734-38.20734S804.16455,732.92188,783.06323,732.92188z
					 M794.1933,782.58423c-0.96265,1.55389-2.41418,2.78937-4.35461,3.70276c-1.94043,0.91718-4.30725,1.37573-7.10229,1.37573
					c-2.32892,0-4.57257-0.3335-6.729-1.00055c-2.15839-0.66699-3.99835-1.59174-5.51813-2.77039l2.60748-4.70709
					c1.17865,0.99677,2.61499,1.78125,4.30719,2.35352c1.6922,0.57611,3.43939,0.86035,5.23956,0.86035
					c2.14136,0,3.82593-0.43964,5.052-1.32648c1.22601-0.88306,1.83997-2.08826,1.83997-3.60803
					c0-1.51971-0.58173-2.70978-1.74524-3.5625c-1.16541-0.85272-2.94287-1.28101-5.3324-1.28101h-2.98077v-4.14618l7.40363-8.80017
					h-14.80914v-5.07849h22.2146v4.05139l-7.91711,9.4104c3.01111,0.3714,5.30969,1.39465,6.89197,3.07361
					c1.58417,1.67517,2.37628,3.771,2.37628,6.28748C795.63727,779.30975,795.15405,781.03418,794.1933,782.58423z"/>
			</g>
			<g>
				<path class="st5" d="M786.36902,768.0575l7.91711-9.4104v-4.05139h-22.2146v5.07849h14.80914l-7.40363,8.80017v4.14618h2.98077
					c2.38953,0,4.16699,0.42828,5.3324,1.28101c1.16351,0.85272,1.74524,2.04279,1.74524,3.5625
					c0,1.51978-0.61395,2.72498-1.83997,3.60803c-1.22607,0.88684-2.91064,1.32648-5.052,1.32648
					c-1.80017,0-3.54736-0.28424-5.23956-0.86035c-1.6922-0.57227-3.12854-1.35675-4.30719-2.35352l-2.60748,4.70709
					c1.51978,1.17865,3.35974,2.10339,5.51813,2.77039c2.15643,0.66705,4.40009,1.00055,6.729,1.00055
					c2.79504,0,5.16187-0.45856,7.10229-1.37573c1.94043-0.91339,3.39197-2.14886,4.35461-3.70276
					c0.96075-1.55005,1.44397-3.27448,1.44397-5.16565c0-2.51648-0.79211-4.6123-2.37628-6.28748
					C791.67871,769.45215,789.38013,768.42889,786.36902,768.0575z"/>
			</g>
		</g>
		<g>
			<g>
				<path class="st3" d="M232.97398,795.64478c-29.08739,0-52.66826,23.57898-52.66826,52.66846
					c0,29.0874,23.58087,52.66876,52.66826,52.66876c29.0876,0,52.66847-23.58136,52.66847-52.66876
					C285.64246,819.22375,262.06158,795.64478,232.97398,795.64478z M232.97446,886.5199
					c-21.10132,0-38.20735-17.10602-38.20735-38.20734s17.10603-38.20734,38.20735-38.20734s38.20734,17.10602,38.20734,38.20734
					S254.07578,886.5199,232.97446,886.5199z"/>
			</g>
			<g>
				<path class="st4" d="M232.97446,810.10522c-21.10132,0-38.20735,17.10602-38.20735,38.20734
					s17.10603,38.20734,38.20735,38.20734s38.20734-17.10602,38.20734-38.20734S254.07578,810.10522,232.97446,810.10522z
					 M247.73714,857.20746h-5.77585v7.40552h-5.86679v-7.40552h-17.88272v-4.19165l16.06546-21.00372h6.47318l-15.13503,20.0752
					h10.66483v-6.56787h5.68108v6.56787h5.77585V857.20746z"/>
			</g>
			<g>
				<polygon class="st5" points="241.96129,845.51941 236.28021,845.51941 236.28021,852.08728 225.61539,852.08728 
					240.75041,832.01208 234.27724,832.01208 218.21178,853.01581 218.21178,857.20746 236.0945,857.20746 236.0945,864.61298 
					241.96129,864.61298 241.96129,857.20746 247.73714,857.20746 247.73714,852.08728 241.96129,852.08728 				"/>
			</g>
		</g>
		<g>
			<path class="st3" d="M211.05144,748.90582c0-29.08807-23.58087-52.6687-52.66849-52.6687
				c-29.08975,0-52.66849,23.58063-52.66849,52.6687c0,29.0874,23.57874,52.66852,52.66849,52.66852
				C187.47057,801.57434,211.05144,777.99323,211.05144,748.90582z M158.38176,787.11298
				c-21.1013,0-38.20734-17.10608-38.20734-38.20734c0-21.10132,17.10603-38.2074,38.20734-38.2074
				s38.20735,17.10608,38.20735,38.2074C196.58911,770.0069,179.48308,787.11298,158.38176,787.11298z"/>
		</g>
		<g>
			<path class="st4" d="M158.38176,710.69824c-21.1013,0-38.20734,17.10608-38.20734,38.2074
				c0,21.10126,17.10603,38.20734,38.20734,38.20734s38.20735-17.10608,38.20735-38.20734
				C196.58911,727.80432,179.48308,710.69824,158.38176,710.69824z M169.51276,760.26965
				c-0.96265,1.58423-2.4066,2.83868-4.33188,3.771s-4.29967,1.3985-7.12505,1.3985c-2.3289,0-4.58011-0.33356-6.75363-1.00055
				c-2.17352-0.66705-4.00404-1.5918-5.49538-2.77045l2.56198-4.70709c1.21088,0.99677,2.66241,1.78131,4.35461,2.35358
				c1.6922,0.57605,3.43745,0.86029,5.23956,0.86029c2.1413,0,3.82591-0.43964,5.05196-1.32648
				c1.22604-0.88306,1.84001-2.10339,1.84001-3.65344c0-1.67896-0.65945-2.94482-1.97835-3.79755
				c-1.32079-0.85272-3.57957-1.28094-6.77637-1.28094h-7.87166l1.67703-17.74445h19.14099v5.07849h-14.01701l-0.69925,7.54193
				h3.11911c4.59528,0,7.99483,0.89447,10.20056,2.6795c2.20384,1.78503,3.3067,4.21436,3.3067,7.28802
				C170.95671,756.91559,170.4735,758.68549,169.51276,760.26965z"/>
		</g>
		<g>
			<path class="st5" d="M157.44945,744.99249h-3.11911l0.69925-7.54193h14.01701v-5.07849h-19.14099l-1.67703,17.74445h7.87166
				c3.19679,0,5.45558,0.42822,6.77637,1.28094c1.31889,0.85272,1.97835,2.11859,1.97835,3.79755
				c0,1.55005-0.61397,2.77039-1.84001,3.65344c-1.22604,0.88684-2.91066,1.32648-5.05196,1.32648
				c-1.80211,0-3.54736-0.28424-5.23956-0.86029c-1.6922-0.57227-3.14374-1.35681-4.35461-2.35358l-2.56198,4.70709
				c1.49133,1.17865,3.32185,2.10339,5.49538,2.77045c2.17352,0.66699,4.42473,1.00055,6.75363,1.00055
				c2.82538,0,5.19977-0.46619,7.12505-1.3985s3.36923-2.18677,4.33188-3.771c0.96074-1.58417,1.44395-3.35406,1.44395-5.30963
				c0-3.07367-1.10286-5.50299-3.3067-7.28802C165.44427,745.88696,162.04472,744.99249,157.44945,744.99249z"/>
		</g>
		<g>
			<path class="st1" d="M314.33002,447.94327c2.67545,0.8165,6.03806,1.70334,10.4346,2.64679l0.1279-0.08221
				C320.66272,449.60492,317.21698,448.74271,314.33002,447.94327z"/>
		</g>
		<g>
			<path class="st1" d="M506.24506,401.93604l-0.00403-0.01965l0.24539,0.18735v-41.58487l-0.03885-3.14349v-15.5235v-0.1163
				l0.1438,0.04996l61.25171-28.22516l2.6778-1.24191l21.61652-9.93503l2.98834-1.39706l24.10034-11.09949h0.03857l3.06604-1.43591
				l24.87634-11.44839l3.18231-1.51358c0.03888,0,0.03888,0,0.03888,0l25.07056-11.52634l3.25977-1.51337h0.03888l16.14813-7.46635
				c-0.02277-17.99667-1.45465-32.02623-1.46149-32.09114l-14.06488,6.48503l-31.76874,14.66058l-2.55701,1.15735l-1.11591,0.51045
				l-3.88086,1.78529l-29.7663,13.7382L580.797,274.85062l-29.02911,13.38907l-17.42957,8.02396l-3.46356,1.6015
				c0,0-0.013,0-0.01538,0l-6.995,3.22025l-20.22607,9.3201l-1.13272,0.53818c0,0-0.00592,0-0.03552,0l-2.86115,1.31842
				l-79.94595,36.86832l-24.06149,11.06064l-23.71231,10.92871l-0.28543,0.13263l-13.17352,6.07855l-18.36404,8.51263h-0.15515
				l-2.80811,1.29379l-19.52115,9.03043l-3.41495,1.55222l-2.56174,1.18411l-0.37378,0.17337l-22.74188,10.51703h-0.01208
				l-0.00214,0.00095l-2.3855,1.09906l-1.05432,0.49127h-0.01184l-0.00214,0.00095l-15.43301,7.09497l-4.30655,1.9852
				c0,0-0.00876-0.0014-0.00897-0.0014l-0.00522,0.00235c0.00119,0.00497,0.00235,0.00974,0.00354,0.01471l0.00522,0.00095
				c0.06491,0.24658,0.11679,0.50571,0.18002,0.75372c0.27097,1.06543,0.52917,2.14319,0.77243,3.23538
				c0.13382,0.60001,0.26102,1.20425,0.38657,1.81134c0.17172,0.83212,0.33469,1.67114,0.49152,2.51535
				c0.11536,0.61917,0.23569,1.23337,0.34323,1.85846c0.2153,1.25186,0.41428,2.51508,0.59952,3.78662
				c0.11322,0.77478,0.21365,1.55457,0.31619,2.33505c0.0867,0.6604,0.17102,1.32126,0.25015,1.98495
				c0.099,0.82834,0.19635,1.65527,0.28424,2.48761c0.06323,0.59882,0.11795,1.19952,0.17575,1.79974
				c0.14734,1.53207,0.27856,3.06415,0.39178,4.60049c0.03979,0.53699,0.08124,1.07373,0.117,1.61047
				c0.06088,0.9155,0.11584,1.82745,0.16583,2.74106c0.02771,0.50833,0.05188,1.01474,0.07651,1.52213
				c0.0867,1.78906,0.15515,3.56702,0.20416,5.33527c0.009,0.32309,0.02158,0.64832,0.02939,0.97046
				c0.02179,0.89963,0.03647,1.78931,0.0495,2.68018c0.0083,0.54883,0.01492,1.09457,0.0199,1.63937
				c0.00757,0.84894,0.01541,1.69409,0.01587,2.53238c0.00049,0.57156-0.00427,1.13293-0.00687,1.69907
				c-0.00662,1.36627-0.02014,2.71262-0.04312,4.04218c-0.01065,0.62344-0.0213,1.245-0.03528,1.85944
				c-0.01611,0.70349-0.03317,1.39871-0.05331,2.0892c-0.02084,0.72742-0.04498,1.44061-0.06985,2.15219
				c-0.0289,0.82645-0.05899,1.64151-0.09286,2.44519c-0.03647,0.8717-0.07437,1.73462-0.1156,2.57669
				c-0.0289,0.58813-0.0592,1.15756-0.09,1.73032c-0.03342,0.61942-0.06726,1.22675-0.10257,1.827
				c-0.03387,0.57605-0.06705,1.15118-0.10233,1.70877c-0.03079,0.48676-0.06302,0.94962-0.09476,1.42145
				c-0.08313,1.23932-0.16745,2.422-0.25415,3.55188c-0.0097,0.12695-0.01965,0.25699-0.02939,0.38254
				c-0.03101,0.39911-0.06158,0.83093-0.09259,1.21515c-0.6597,7.8392-0.62085,15.75635,0.11652,23.59555
				c0.582,6.09302,0.9314,11.29346,1.16422,15.87286c1.00906,21.88818-0.97021,29.41711,4.23004,49.90802
				c6.90805,27.32129,2.4838,43.9704,0.2717,74.90088c-2.20551,30.79919,8.35248,62.00635,8.41599,62.19324l20.55057-9.95874
				l1.3613-85.49341c0.6597-10.59473,0.07745-21.26715-1.86298-31.66809l-6.44214-49.94684
				c-1.51361-14.35907-1.31961-28.8349,0.62082-43.07764l2.91068-53.01266c0.27167-1.70758,0.85391-3.33774,1.78528-4.73477
				c0.03836-0.07675,0.07675-0.11584,0.11511-0.19165l-0.00308-0.00165l28.5632-14.74728h0.03885l3.49265-1.82413l24.44946-12.61285
				l3.45404-1.78503l24.17801-12.49655h0.0386l3.49289-1.82391l23.75095-12.2637l3.53149-1.82388l22.5481-11.64264h0.03864
				l3.53171-1.82413l19.05499-9.85733h0.03885l3.68689-1.90161l6.56769-3.39978l0.03104-0.0199v99.9328l0.34631-0.49316
				l-0.01019,0.04382l0.0116-0.02914v174.64368l33.18951-16.0835V401.91873L506.24506,401.93604z"/>
		</g>
		<g>
			<path class="st6" d="M161.99095,378.21542c0.05922,0.29892,0.12886,0.59665,0.21129,0.89322
				c0.14046,0.50903,0.32381,1.01285,0.53154,1.51361c0.12056,0.29016,0.22621,0.58176,0.36809,0.87024
				c0.34537,0.69785,0.74567,1.38831,1.2142,2.06955c0.045,0.06537,0.07603,0.13312,0.12222,0.19824
				c0.53391,0.75586,1.15497,1.49918,1.83029,2.23416c0.18167,0.19827,0.38681,0.39297,0.5782,0.58957
				c0.5448,0.55832,1.11897,1.11188,1.73909,1.65787c0.22101,0.19516,0.44722,0.3887,0.67746,0.58221
				c0.70065,0.58768,1.44017,1.16824,2.22208,1.741c0.16319,0.11963,0.31787,0.24115,0.48463,0.36029
				c2.03258,1.45105,4.30605,2.85498,6.78465,4.20847c0.0424,0.02298,0.08694,0.04572,0.12958,0.06891
				c1.19334,0.64905,2.43454,1.28574,3.71269,1.91156c0.12814,0.06277,0.25725,0.12552,0.38609,0.18808
				c1.30019,0.63052,2.63518,1.25043,4.00951,1.85706c0.01895,0.00851,0.03719,0.01682,0.05614,0.02509
				c4.28378,1.88858,8.90086,3.65869,13.66953,5.31064c0.22383,0.07745,0.44792,0.15445,0.67247,0.23141
				c1.33807,0.45883,2.688,0.90744,4.04503,1.34756c0.2641,0.08551,0.52679,0.17267,0.79138,0.25748
				c1.49892,0.48083,3.0054,0.95078,4.51569,1.40817c0.07626,0.02298,0.15182,0.04761,0.2281,0.07059
				c26.65639,8.05121,54.20436,12.43948,54.30196,12.45511c0.00021,0,0.00897,0.0014,0.00897,0.0014l4.30655-1.9852l12.61401-5.8154
				l2.79413-1.28052c-45.4449-21.81049-70.39891-50.37393-70.39891-80.68356c0-64.73297,115.84404-117.35764,258.2334-117.35764
				c65.0047,0,127.05988,10.94411,174.79456,30.89186l31.79364-14.65964l14.06488-6.48503l0.01349-0.00615
				c0,0-34.22937-13.62192-103.27008-18.78355c-9.8573-0.73737-19.7926,0.62108-29.49475-1.31935
				c-12.10834-2.44498-106.64642-12.22485-166.95514-2.36728c-6.94693,1.12537-13.66077,3.49265-20.5686,4.73454
				c-36.90717,6.59755-143.70894,27.74837-180.69356,61.86118c0,0-14.20415,19.40439-43.5824,30.42618
				c-10.63356,3.95831-15.29066,8.57657-15.05782,15.48465l0.27168,2.52243c1.31961,7.17975,6.59753,14.90268,13.62192,19.90891
				c0,0,21.65535,8.42166,14.32043,37.91623c-0.21176,0.84967-0.30225,1.68723-0.32285,2.517
				c-0.00569,0.24231,0.02155,0.48035,0.03174,0.72079C161.82112,377.08127,161.88129,377.65118,161.99095,378.21542z"/>
		</g>
		<g>
			<path class="st0" d="M274.74576,659.46191c2.2121-30.93048,6.63635-47.57959-0.2717-74.90088
				c-5.20026-20.49091-3.22098-28.01984-4.23004-49.90802c-1.70758-3.68689-4.2691-6.8692-7.9169-9.19763
				c-4.0751-2.60034-8.96504-3.64807-12.88452-6.36469c-10.20673-7.10208-10.16788-22.00452-15.6012-33.18146
				c-4.92879-10.24557-14.63098-17.42508-20.33575-27.20499c-10.86641-18.58929-11.25464-37.14001-2.48381-50.8782
				c-0.01706-0.00522-0.03387-0.01044-0.05093-0.01566c-0.07628-0.02298-0.15184-0.04761-0.2281-0.07059
				c-1.51028-0.4574-3.01677-0.92734-4.51569-1.40817c-0.26459-0.08481-0.52728-0.17197-0.79138-0.25748
				c-1.35703-0.44012-2.70695-0.88873-4.04503-1.34756c-0.22455-0.07697-0.44864-0.15396-0.67247-0.23141
				c-4.77174-1.65051-9.38289-3.42136-13.66953-5.31064c-0.01895-0.00827-0.03719-0.01657-0.05614-0.02509
				c-1.37433-0.60663-2.70932-1.22653-4.00951-1.85706c-0.12885-0.06256-0.25795-0.12531-0.38609-0.18808
				c-1.27815-0.62582-2.51935-1.26251-3.71269-1.91156c-0.04263-0.02319-0.08717-0.04593-0.12958-0.06891
				c-2.47765-1.35349-4.75349-2.75647-6.78465-4.20847c-0.16676-0.11914-0.32144-0.24066-0.48463-0.36029
				c-0.78191-0.57275-1.52142-1.15332-2.22208-1.741c-0.23024-0.19351-0.45645-0.38705-0.67746-0.58221
				c-0.62012-0.54599-1.19429-1.09955-1.73909-1.65787c-0.19139-0.19659-0.39653-0.3913-0.5782-0.58957
				c-0.67532-0.73499-1.29639-1.4783-1.83029-2.23416c-0.04619-0.06512-0.07722-0.13287-0.12222-0.19824
				c-0.41098-0.59952-0.79068-1.20331-1.10666-1.81561c-3.41519,7.76175-8.0723,14.20413-13.8159,17.38647
				c-5.97647,3.29868-4.9288,12.92316-10.16788,17.34741c-0.85368,0.69852-1.8239,1.20306-2.83296,1.55246
				c0.50453,7.6452,1.12537,14.24274,1.8239,19.05499c4.11371,27.5155-7.41237,52.23666-2.67783,87.74652
				c2.13445,15.79523,2.52267,31.08588,6.86923,57.94147c4.50171,27.9812-0.11655,59.72675-0.11655,59.72675
				s-9.58565,26.04077,44.39723,32.13373c0.00047-0.0047,0.00119-0.0097,0.00166-0.0144
				c-0.00333-0.00049-0.00711-0.00073-0.01042-0.00122c0.85391-7.06323,1.39705-14.24298,2.48381-20.68512
				c4.50171-27.55414,9.00366-55.14734,13.54422-82.7403c0.69853-4.26886,1.43591-8.69312,3.91972-12.26349
				c2.48381-3.57056,7.17952-5.97668,11.25439-4.42426c2.01009,0.78644,3.40216,2.27869,4.36551,4.1391
				c1.61049,3.09845,2.02737,7.22357,2.1245,10.81781c1.20306,42.61218,6.17068,85.06897,14.86382,126.78839
				c0.2717,0.3103,0.54314,0.58197,0.81483,0.89252c12.4577,14.59216,37.91624,26.97217,43.11671,24.52716
				c0,0-0.00546-0.01678-0.00568-0.01727C283.09824,721.46826,272.54025,690.26111,274.74576,659.46191z"/>
		</g>
		<g>
			<path class="st7" d="M217.88205,554.50745c-4.07487-1.55243-8.77058,0.8537-11.25439,4.42426
				c-2.48381,3.57037-3.22119,7.99463-3.91972,12.26349c-4.54056,27.59296-9.04251,55.18616-13.54422,82.7403
				c-1.08676,6.44214-1.6299,13.62189-2.48381,20.68512c0.00331,0.00049,0.0071,0.00073,0.01042,0.00122
				c0.7729,0.11536,1.54558,0.19305,2.35686,0.27051c0,0,36.94601,7.33466,50.17969,21.34479
				c-8.69312-41.71942-13.66052-84.17621-14.86359-126.78839c-0.09711-3.58807-0.51234-7.70563-2.11572-10.80219
				C221.28421,556.78613,219.89214,555.29388,217.88205,554.50745z"/>
		</g>
		<g>
			<path class="st8" d="M693.48358,717.60443l0.00757-0.00659c-0.00519,0.00116-0.00922,0.00067-0.01447,0.00189
				L693.48358,717.60443z"/>
		</g>
		<g>
			<path class="st8" d="M693.49231,619.56659c-1.51355-86.15546-13.00079-106.14209-10.4007-179.95618
				c-0.03882,0-0.03882,0-0.03882,0l-26.46765-14.63098c0.00262-0.0007,0.005-0.00189,0.00763-0.00259l-3.37042-1.85944
				l-23.98383-13.31137l-3.53149-1.94043h-0.03882l-23.75098-13.19507c0,0.03885,0,0.03885-0.03882,0l-3.64801-2.01791
				l-23.20758-12.88452c-0.03888,0-0.03888,0-0.03888,0l-3.88086-2.13443l-22.47015-12.41885l-4.07513-2.25098c0,0,0,0-0.03857,0
				l-19.21039-10.67242l-4.88995-2.71664l-13.97131-7.7229v15.5235l0.03885,3.14349v41.58487l16.32767,12.46432l2.99097,2.28983
				l14.00446,10.74988c0.03503,0,0.03503,0,0.07037,0l2.95563,2.21213l17.13611,13.11737l2.95593,2.25098l18.0509,13.77707
				l2.81494,2.13443l18.57867,14.16528l2.81519,2.17328l18.82501,14.35928l2.67426,2.05676l21.74561,16.57141
				c0,0-0.32764,0.13928-0.89844,0.37259c0.03241,3.6734,0.2063,34.39801-2.44855,82.94897
				c-0.89276,17.42511-1.94043,36.40265-2.63898,56.00104c-0.41949,10.90881-0.67651,21.97937-0.8385,33.06439l50.12378,33.61658
				C690.42462,711.45361,694.70319,689.50787,693.49231,619.56659z M651.41693,621.58899c0,0.53632-0.43396,0.97021-0.97021,0.97021
				c-0.53632,0-0.97028-0.4339-0.97028-0.97021V497.05042c0-0.53629,0.43396-0.97021,0.97028-0.97021
				c0.53625,0,0.97021,0.43393,0.97021,0.97021V621.58899z M665.93799,644.60327c0,0.53632-0.43396,0.97021-0.97021,0.97021
				c-0.53632,0-0.97021-0.4339-0.97021-0.97021v-96.4458c0-0.53632,0.4339-0.97021,0.97021-0.97021
				c0.53625,0,0.97021,0.4339,0.97021,0.97021V644.60327z"/>
		</g>
		<g>
			<polygon class="st8" points="506.44757,341.73557 506.44757,341.85187 506.59137,341.78552 			"/>
		</g>
		<g>
			<path class="st0" d="M771.57556,618.59637c1.08673-35.39355,10.78894-75.87103,7.83942-97.75928
				c-0.69855-5.20044-1.63013-10.55609-0.27167-15.60117c0-0.03885,0.03882-0.1163,0.03882-0.15515
				c1.82391-6.32584,11.25439-5.20047,11.87549,1.35822c1.82391,18.74472,6.17047,37.21768,12.88452,54.79794
				c8.38257,22.12103,21.34485,43.85382,25.53601,67.37195c12.10828-16.10547,19.17151-33.76343,16.92078-52.43042
				c-1.55243-12.8457-9.19788-21.22852-14.5921-66.32428c-4.88995-0.42685-10.12927-3.60919-13.73846-7.29608
				c-16.41602-16.72656-22.58673-41.02087-24.1778-64.38358c-2.7865-22.35342-2.72375-46.09656-1.71869-69.52368
				c-11.2066,10.04376-24.08167,19.72629-36.97351,28.54163c7.5675,8.61545,11.99176,21.26712,12.72913,32.2887
				c2.44501,36.01462-15.40692,70.43799-17.15338,106.49124c-0.69855,14.24298,1.16418,28.4469,2.32843,42.61218
				c1.08673,13.27252,1.55243,26.58386,1.39703,39.89526c-0.03857,2.13446-0.07745,4.30774-0.11627,6.44238
				c-0.23285,8.49915-0.85394,17.54138-5.82135,24.48834c-4.92877,6.94666-15.67865,10.43951-22.19873,4.88989
				c0.42712-13.8161,3.14349-27.5155,4.19141-41.33142c4.61829-59.64905-17.42505-119.02637-20.76257-178.52026
				c-0.1554-2.87183-0.42706-5.82132-0.65991-8.77081c-14.35907,8.0723-24.5658,13.19507-25.92419,13.85474
				c-0.03888,0.03885-0.07745,0.03885-0.11633,0.0777c-2.6001,73.81409,8.88715,93.80072,10.4007,179.95618
				c1.21088,69.94128-3.06769,91.88702-1.76086,96.86273c0.28284,1.07709,0.8241,1.37103,1.7431,1.17059
				c0.00073-0.00018,0.00146,0,0.00214-0.00018c0.00525-0.00122,0.00928-0.00073,0.01447-0.00189
				c0.00049,0,0.00073-0.00024,0.00116-0.00024c2.75555-0.62109,48.70496-18.27905,89.57068-46.57056
				C773.32196,658.5694,770.95471,639.47552,771.57556,618.59637z"/>
		</g>
		<g>
			<path class="st9" d="M438.58768,311.56473c-12.8457,5.23911-20.68512,12.88431-21.61652,20.9566
				c-0.42706,3.80316,0.54315,9.27533,6.79153,14.6698h0.03885l2.91068-1.35843c-4.96765-3.88089-7.33493-8.34375-6.83038-12.96201
				c0.77597-6.98553,7.9946-13.77707,19.79236-18.62814c18.16248-7.45145,43.7764-8.69336,62.79254-3.29889
				c0.00333,0,0.00049,0,0.00333,0c0.0296,0,0.03552,0,0.03552,0l1.13272-0.53818l2.78702-1.32458
				C486.32242,302.36685,458.61288,303.33707,438.58768,311.56473z"/>
		</g>
		<g>
			<path class="st9" d="M445.61206,291.81097c-31.90094,5.23907-55.72955,18.04617-62.24942,33.45312
				c-3.0658,7.17953-2.13443,14.63098,2.63898,21.46136c3.02719,4.34656,7.45145,8.3049,13.19507,11.79776l3.22119-1.47473
				c-6.24838-3.53149-10.94409-7.56775-14.01013-11.992c-4.23001-6.05417-5.0451-12.34116-2.36728-18.66702
				c6.13187-14.51443,29.14542-26.66159,60.03726-31.7067c28.05865-4.57941,57.94147-2.75525,80.95505,4.9288l3.80316-1.74643
				C507.08499,289.172,475.3006,286.95987,445.61206,291.81097z"/>
		</g>
		<g>
			<path class="st9" d="M345.75696,341.60266c-2.8718-8.26627-1.62991-16.57141,3.60919-24.64368
				c13.97128-21.46112,54.52649-37.91602,103.34775-41.91342c36.82947-3.0658,73.85318,1.16422,102.41635,11.60379l3.72571-1.70761
				c-29.30054-11.33209-67.95416-15.95035-106.37491-12.80685c-50.45139,4.15259-90.89005,20.724-105.55988,43.23303
				c-5.70477,8.73196-7.02438,18.16248-3.88089,27.16614c3.72574,10.711,13.58286,20.56812,28.56226,28.71762
				c0.00049,0.00024,0.0007,0.00046,0.00119,0.0007l0.28543-0.13263l3.05206-1.41959
				C359.45657,361.74442,349.405,352.00339,345.75696,341.60266z"/>
		</g>
		<g>
			<path class="st9" d="M459.31143,252.45883c-67.2168,2.75551-125.66278,23.20779-148.98688,52.08151
				c-8.7706,10.86642-12.18579,22.27621-10.16788,33.91882c3.02719,17.30856,17.81332,33.14261,42.845,45.94943c0,0,0,0,0.0386,0
				l3.41519-1.55219c-25.10913-12.38-40.55496-28.29175-43.427-44.90176c-1.86273-10.78897,1.35846-21.42252,9.58588-31.59039
				c22.78073-28.2529,80.41165-48.27811,146.8136-50.99477c46.06598-1.8239,90.26901,4.42424,124.92545,17.81331l3.68658-1.70758
				C552.64642,257.27109,506.96869,250.5184,459.31143,252.45883z"/>
		</g>
		<g>
			<path class="st9" d="M260.22253,334.26776c-0.93137-13.46677,4.42426-26.58389,15.83405-39.0416
				c31.97839-34.81158,106.5687-58.1743,190.04639-59.53275c54.68164-0.93137,107.07349,7.52892,147.93896,23.78979l3.64801-1.66876
				c-41.56403-17.0757-95.4306-25.96306-151.66467-25.03169c-84.21481,1.39729-159.62021,25.10939-192.10336,60.50298
				c-11.99176,13.03967-17.58023,26.89444-16.57117,41.17603c1.62988,23.71115,21.76974,46.10294,56.8118,63.2561
				c0.00143,0.0007,0.00284,0.0014,0.00427,0.00214l3.41495-1.55222c-0.01279-0.00616-0.02463-0.01257-0.03741-0.01871
				C282.17447,379.26996,261.85196,357.35074,260.22253,334.26776z"/>
		</g>
		<g>
			<path class="st10" d="M472.83099,213.14459c-142.38934,0-258.2334,52.62466-258.2334,117.35764
				c0,30.30963,24.95401,58.87308,70.39893,80.68356h0.02701h0.01184l1.05432-0.49127l2.36087-1.10001h0.02676h0.01208
				l22.74188-10.51703l0.37378-0.17337l2.55746-1.18625c-35.04205-17.15317-55.18192-39.54495-56.8118-63.2561
				c-1.00906-14.28159,4.57941-28.13635,16.57117-41.17603c32.48315-35.39359,107.88855-59.10568,192.10336-60.50298
				c56.23407-0.93137,110.10065,7.95599,151.66467,25.03169l-3.64801,1.66876
				c-40.86548-16.26088-93.25732-24.72116-147.93896-23.78979c-83.47769,1.35844-158.06799,24.72116-190.04639,59.53275
				c-11.40979,12.4577-16.76541,25.57483-15.83405,39.0416c1.62943,23.08298,21.95193,45.0022,57.32181,61.88132l0.12933-0.05994
				l19.42923-8.95178l2.80811-1.29379h0.15515l18.36404-8.51263l9.85001-4.56589c0,0,0,0,0.03885,0l3.28348-1.51337
				c-14.9794-8.14951-24.83652-18.00662-28.56226-28.71762c-3.14349-9.00366-1.82388-18.43417,3.88089-27.16614
				c14.66983-22.50903,55.10849-39.08044,105.55988-43.23303c38.42075-3.14349,77.07437,1.47476,106.37491,12.80685
				l-3.72571,1.70761c-28.56317-10.43958-65.58688-14.66959-102.41635-11.60379
				c-48.82126,3.99741-89.37646,20.4523-103.34775,41.91342c-5.23911,8.07227-6.48099,16.37741-3.60919,24.64368
				c3.64804,10.40073,13.69962,20.14175,29.18427,28.0975l-3.05206,1.41959l23.71231-10.92871l24.06149-11.06064l79.94595-36.86832
				l2.86115-1.31842c-0.00284,0,0,0-0.00333,0c-19.01614-5.39447-44.63007-4.15256-62.79254,3.29889
				c-11.79776,4.85107-19.01639,11.64261-19.79236,18.62814c-0.50455,4.61826,1.86273,9.08112,6.83038,12.96201l-2.91068,1.35843
				h-0.03885c-6.24838-5.39447-7.2186-10.86664-6.79153-14.6698c0.9314-8.0723,8.77081-15.7175,21.61652-20.9566
				c20.02521-8.22766,47.73474-9.19788,67.83765-2.48383l-2.78702,1.32458l20.22607-9.3201l6.995-3.22025l3.47894-1.6015
				l17.42957-8.02396l29.02911-13.38907l29.53339-13.62192l29.7663-13.7382l3.88086-1.78529l1.11591-0.51045l2.5321-1.15829
				C599.89087,224.0887,537.83569,213.14459,472.83099,213.14459z M527.03278,299.61157
				c-23.01358-7.68405-52.89639-9.50821-80.95505-4.9288c-30.89185,5.0451-53.9054,17.19226-60.03726,31.7067
				c-2.67783,6.32587-1.86273,12.61285,2.36728,18.66702c3.06604,4.42426,7.76175,8.46051,14.01013,11.992l-3.22119,1.47473
				c-5.74362-3.49286-10.16788-7.4512-13.19507-11.79776c-4.77341-6.83038-5.70477-14.28183-2.63898-21.46136
				c6.51987-15.40695,30.34848-28.21405,62.24942-33.45312c29.68854-4.8511,61.47293-2.63898,85.22388,6.05417L527.03278,299.61157z
				 M584.35339,273.1828c-34.65643-13.38907-78.85947-19.63721-124.92545-17.81331
				c-66.40195,2.71666-124.03287,22.74187-146.8136,50.99477c-8.22742,10.16788-11.44861,20.80142-9.58588,31.59039
				c2.87204,16.61002,18.31787,32.52176,43.427,44.90176l-3.41519,1.55219c-0.0386,0-0.0386,0-0.0386,0
				c-25.03168-12.80682-39.81781-28.64087-42.845-45.94943c-2.01791-11.64261,1.39728-23.0524,10.16788-33.91882
				c23.3241-28.87372,81.77008-49.326,148.98688-52.08151c47.65726-1.94043,93.33499,4.81226,128.72855,19.01639L584.35339,273.1828
				z"/>
		</g>
		<g>
			<path class="st10" d="M571.99561,324.42676c0.42688-3.80316-1.00903-7.49005-4.15253-10.86639l-61.25171,28.22516
				l-0.1438,0.06635l13.97131,7.7229c11.56494-0.2717,23.1687-2.52243,32.63806-6.55869
				C564.3504,338.16498,571.25824,331.37344,571.99561,324.42676z"/>
		</g>
		<g>
			<path class="st10" d="M604.4397,330.86893c2.56152-6.32562,1.78528-12.61285-2.25073-18.66702
				c-2.36731-3.53149-5.7439-6.83014-10.05157-9.81848l-21.61652,9.93503c3.99744,4.6571,4.61823,9.15881,4.2691,12.41885
				c-0.85394,8.07205-8.42169,15.7175-20.68512,20.95657c-8.57684,3.64804-18.58929,5.89902-28.79602,6.59753l19.21039,10.67242
				c0.03857,0,0.03857,0,0.03857,0c0.81506-0.1163,1.59131-0.2717,2.36749-0.388
				C576.53644,357.53076,598.57977,345.38358,604.4397,330.86893z"/>
		</g>
		<g>
			<path class="st10" d="M639.56183,340.29965c5.04504-8.0723,6.20929-16.37741,3.4538-24.64371
				c-3.14349-9.43048-11.29327-18.24017-23.75098-25.76907h-0.03857l-24.10034,11.09949
				c3.91974,2.91068,7.06323,6.09302,9.35278,9.54681c4.57941,6.83038,5.43335,14.28159,2.52271,21.46133
				c-6.1319,15.17413-28.4469,27.86469-58.36829,33.22031l22.47015,12.41885
				C603.70258,370.45389,629.23853,356.87082,639.56183,340.29965z"/>
		</g>
		<g>
			<path class="st10" d="M674.79999,350.89438c7.8783-10.16788,10.94409-20.80145,9.15906-31.59039
				c-2.63898-15.7175-15.29065-30.23193-36.75201-42.30142l-24.87634,11.44839c12.10834,7.60663,20.10291,16.61029,23.3241,26.23477
				c2.98816,9.04251,1.70764,18.47299-3.76453,27.20499c-10.51727,16.88171-34.92792,30.42615-66.86743,37.87738l23.20758,12.88452
				C633.08057,383.72665,660.7901,369.01801,674.79999,350.89438z"/>
		</g>
		<g>
			<path class="st10" d="M709.80554,362.03247c10.94409-12.4577,16.06689-25.57507,15.17438-39.0416
				c-1.47473-21.81052-18.93872-42.61197-49.48114-59.02823l-25.07056,11.52634
				c21.11194,12.34116,33.60828,27.16614,36.28607,43.31046c1.94043,11.64264-1.35822,23.05243-9.74103,33.91882
				c-13.93219,18.00732-41.02063,32.75461-75.05603,41.95227l23.75098,13.19507h0.03882
				C662.76935,397.38718,692.69098,381.51453,709.80554,362.03247z"/>
		</g>
		<g>
			<path class="st10" d="M727.73517,322.79688c0.97021,14.28159-4.38538,28.13635-15.87262,41.17603
				c-17.03711,19.36554-46.33765,35.23843-82.62402,45.83313l23.98383,13.31137l3.37042,1.85944
				c2.47742-0.77219,4.92212-1.5657,7.33704-2.37793c0.21198-0.07129,0.41998-0.1452,0.63171-0.21698
				c2.16052-0.73145,4.2959-1.479,6.40424-2.24222c0.34039-0.12317,0.67792-0.24774,1.01691-0.37164
				c2.07166-0.75797,4.11938-1.52969,6.13849-2.31778c0.21552-0.08432,0.43274-0.16721,0.64783-0.25177
				c11.56921-4.54721,22.25958-9.58731,31.91559-15.07748c8.34399-4.6571,15.95038-9.70218,22.66443-15.01898
				c0.03864,0,0.03864,0,0.03864,0c6.95398-5.46198,12.98566-11.216,18.00519-17.21262
				c0.21246-0.25394,0.41046-0.51117,0.61938-0.76627c0.74451-0.90842,1.47455-1.82013,2.17236-2.73941
				c0.28564-0.37616,0.55475-0.75607,0.83209-1.13412c0.59644-0.81198,1.1839-1.62613,1.74335-2.44617
				c0.29352-0.4299,0.57208-0.86316,0.8551-1.29544c0.51141-0.78049,1.01263-1.56332,1.49017-2.35068
				c0.27618-0.45526,0.54102-0.91315,0.80585-1.37079c0.45123-0.77975,0.88898-1.56238,1.30701-2.34879
				c0.24377-0.45859,0.48041-0.91858,0.71277-1.3793c0.40436-0.80228,0.79089-1.60764,1.16022-2.41629
				c0.20392-0.44604,0.40503-0.89255,0.59808-1.34045c0.36261-0.84137,0.70184-1.68723,1.02612-2.53522
				c0.16058-0.41949,0.32306-0.83878,0.47418-1.25992c0.32355-0.90247,0.6178-1.80945,0.89752-2.71878
				c0.11371-0.37,0.2345-0.73859,0.34106-1.1095c0.28687-1.00031,0.53864-2.00558,0.77197-3.0137
				c0.0661-0.28613,0.14258-0.5704,0.20441-0.85699c0.25085-1.16232,0.46143-2.33032,0.63983-3.50259
				c0.02081-0.13715,0.04974-0.27313,0.06964-0.41028c0.3894-2.68942,0.58978-5.40369,0.58978-8.14026
				c0-28.87207-21.69135-56.15262-61.38837-77.49719l-3.25342,1.51053l-9.11639,4.2151l-16.14813,7.46635
				C708.9519,279.21448,726.26044,300.40414,727.73517,322.79688z"/>
		</g>
		<g>
			<path class="st9" d="M574.78998,324.7373c0.34912-3.26004-0.27167-7.76175-4.2691-12.41885l-2.6778,1.24191
				c3.14349,3.37634,4.57941,7.06323,4.15253,10.86639c-0.73737,6.94669-7.6452,13.73822-18.93866,18.58932
				c-9.46936,4.03625-21.07312,6.28699-32.63806,6.55869l4.88995,2.71664c10.20673-0.69852,20.21918-2.94949,28.79602-6.59753
				C566.36829,340.4548,573.93604,332.80936,574.78998,324.7373z"/>
		</g>
		<g>
			<path class="st9" d="M607.00122,331.99451c2.91064-7.17975,2.0567-14.63095-2.52271-21.46133
				c-2.28955-3.4538-5.43304-6.63614-9.35278-9.54681l-2.98834,1.39706c4.30768,2.98834,7.68427,6.28699,10.05157,9.81848
				c4.03601,6.05417,4.81226,12.3414,2.25073,18.66702c-5.85992,14.51465-27.90326,26.66183-57.5144,31.70691
				c-0.77618,0.1163-1.55243,0.2717-2.36749,0.388l4.07513,2.25098C578.55432,359.85919,600.86932,347.16864,607.00122,331.99451z"
				/>
		</g>
		<g>
			<path class="st9" d="M641.89026,341.89072c5.47217-8.73199,6.75269-18.16248,3.76453-27.20499
				c-3.22119-9.62448-11.21576-18.62814-23.3241-26.23477l-3.06604,1.43591c12.4577,7.5289,20.60748,16.33859,23.75098,25.76907
				c2.75549,8.2663,1.59125,16.57141-3.4538,24.64371c-10.3233,16.57117-35.85925,30.15424-68.45874,37.33401l3.88086,2.13443
				c0,0,0,0,0.03888,0C606.96234,372.31686,631.37299,358.77243,641.89026,341.89072z"/>
		</g>
		<g>
			<path class="st9" d="M676.97327,352.71826c8.38281-10.86639,11.68146-22.27618,9.74103-33.91882
				c-2.6778-16.14432-15.17413-30.9693-36.28607-43.31046c0,0,0,0-0.03888,0l-3.18231,1.51358
				c21.46136,12.06949,34.11304,26.58392,36.75201,42.30142c1.78503,10.78894-1.28076,21.42252-9.15906,31.59039
				c-14.00989,18.12363-41.71942,32.83228-76.56958,41.75824l3.64801,2.01791c0.03882,0.03885,0.03882,0.03885,0.03882,0
				C635.95264,385.47287,663.04108,370.72559,676.97327,352.71826z"/>
		</g>
		<g>
			<path class="st9" d="M711.86255,363.9729c11.48724-13.03967,16.84283-26.89444,15.87262-41.17603
				c-1.47473-22.39273-18.78326-43.5824-48.93774-60.3476h-0.03888l-3.25977,1.51337
				c30.54242,16.41626,48.00641,37.21771,49.48114,59.02823c0.89252,13.46652-4.23029,26.58389-15.17438,39.0416
				c-17.11456,19.48206-47.03619,35.35471-84.09851,45.83313l3.53149,1.94043
				C665.5249,399.21133,694.82544,383.33844,711.86255,363.9729z"/>
		</g>
		<g>
			<path class="st7" d="M709.79205,434.44879c3.33752,59.4939,25.38086,118.87122,20.76257,178.52026
				c-1.04791,13.81592-3.76428,27.51532-4.19141,41.33142c6.52008,5.54962,17.26996,2.05676,22.19873-4.88989
				c4.96741-6.94696,5.5885-15.9892,5.82135-24.48834c0.03882-2.13464,0.0777-4.30792,0.11627-6.44238
				c0.1554-13.3114-0.3103-26.62274-1.39703-39.89526c-1.16425-14.16528-3.02698-28.3692-2.32843-42.61218
				c1.74646-36.05325,19.59839-70.47662,17.15338-106.49124c-0.73737-11.02158-5.16162-23.67325-12.72913-32.2887
				c-16.49371,11.25439-33.02631,21.11172-46.06622,28.4855C709.36499,428.62747,709.63666,431.57697,709.79205,434.44879z"/>
		</g>
		<g>
			<path class="st7" d="M791.05762,506.439c-0.62109-6.55869-10.05157-7.68405-11.87549-1.35822
				c0,0.03885-0.03882,0.1163-0.03882,0.15515c-1.35846,5.04507-0.42688,10.40073,0.27167,15.60117
				c2.94952,21.88824-6.75269,62.36572-7.83942,97.75928c-0.62085,20.87915,1.7464,39.97302,11.48743,52.43066
				c17.73566-12.34137,34.53967-26.62299,46.41516-42.41815c-4.19116-23.51813-17.15344-45.25092-25.53601-67.37195
				C797.22809,543.65668,792.88153,525.18372,791.05762,506.439z"/>
		</g>
		<g>
			<path class="st7" d="M792.17188,368.65085c-1.00507,23.42712-1.06781,47.17026,1.71869,69.52368
				c1.59106,23.3627,7.76178,47.65701,24.1778,64.38358c3.60919,3.68689,8.84851,6.86923,13.73846,7.29608
				c-2.21216-18.74469-4.07513-43.8927-4.96765-78.35489c-0.9314-35.8204,5.93787-98.76834-0.388-121.47137
				C829.2384,328.49146,813.82367,349.246,792.17188,368.65085z"/>
		</g>
		<g>
			<path class="st6" d="M768.70374,326.75449c0,2.73657-0.20038,5.45084-0.58978,8.14026
				c-0.0199,0.13715-0.04883,0.27313-0.06964,0.41028c-0.17841,1.17227-0.38898,2.34027-0.63983,3.50259
				c-0.06183,0.28659-0.13831,0.57086-0.20441,0.85699c-0.23334,1.00812-0.48511,2.0134-0.77197,3.0137
				c-0.10657,0.37091-0.22736,0.7395-0.34106,1.1095c-0.27972,0.90933-0.57397,1.81631-0.89752,2.71878
				c-0.15112,0.42114-0.3136,0.84042-0.47418,1.25992c-0.32428,0.84799-0.66351,1.69385-1.02612,2.53522
				c-0.19305,0.44791-0.39417,0.89441-0.59808,1.34045c-0.36932,0.80865-0.75586,1.61401-1.16022,2.41629
				c-0.23236,0.46072-0.46899,0.92072-0.71277,1.3793c-0.41803,0.78641-0.85577,1.56903-1.30701,2.34879
				c-0.26483,0.45764-0.52966,0.91553-0.80585,1.37079c-0.47754,0.78735-0.97876,1.57019-1.49017,2.35068
				c-0.28302,0.43228-0.56158,0.86554-0.8551,1.29544c-0.55945,0.82004-1.14691,1.63419-1.74335,2.44617
				c-0.27734,0.37805-0.54645,0.75797-0.83209,1.13412c-0.69781,0.91928-1.42786,1.83099-2.17236,2.73941
				c-0.20892,0.2551-0.40692,0.51233-0.61938,0.76627c-5.01953,5.99661-11.05121,11.75064-18.00519,17.21262c0,0,0,0-0.03864,0
				c-6.71405,5.3168-14.32043,10.36188-22.66443,15.01898c-9.65601,5.49017-20.34637,10.53027-31.91559,15.07748
				c-0.21509,0.08456-0.43231,0.16745-0.64783,0.25177c-2.0191,0.78809-4.06683,1.55981-6.13849,2.31778
				c-0.33899,0.1239-0.67651,0.24847-1.01691,0.37164c-2.10834,0.76321-4.24371,1.51077-6.40424,2.24222
				c-0.21173,0.07178-0.41974,0.14569-0.63171,0.21698c-2.41492,0.81223-4.85962,1.60574-7.33704,2.37793
				c-0.00262,0.0007-0.005,0.00189-0.00763,0.00259l26.46765,14.63098c0,0,0,0,0.03882,0
				c0.03888-0.03885,0.07745-0.03885,0.11633-0.0777c1.3584-0.65967,11.56512-5.78244,25.92419-13.85474
				c13.03992-7.37378,29.57251-17.23111,46.06622-28.4855c12.89185-8.81534,25.76691-18.49786,36.97351-28.54163
				c21.65179-19.40485,37.06653-40.15939,34.2793-58.62292c-1.20306-8.22745-6.05414-16.02805-15.6012-23.0524
				c-46.91968-34.42337-87.3197-45.17346-87.3197-45.17346l-16.22205,7.45122c0.00238,0.00117,0.00476,0.00284,0.00714,0.00401
				C747.01239,270.60187,768.70374,297.88242,768.70374,326.75449z"/>
		</g>
		<g>
			<path class="st7" d="M149.39351,399.1329c5.74361-3.18234,10.40071-9.62473,13.8159-17.38647
				c-0.04311-0.08408-0.06609-0.16983-0.10754-0.25394c-0.14188-0.28848-0.24753-0.58008-0.36809-0.87024
				c-0.20773-0.50076-0.39108-1.00458-0.53154-1.51361c-0.08243-0.29657-0.15207-0.5943-0.21129-0.89322
				c-0.10966-0.56424-0.16983-1.13416-0.19281-1.70807c-0.01019-0.24045-0.03743-0.47849-0.03174-0.72079
				c0.0199-0.82291,0.10588-1.65384,0.31764-2.5004c7.33492-29.49457-14.32045-37.91626-14.32045-37.91626
				c-7.02437-5.00623-12.30231-12.72913-13.6219-19.90891l-0.2717-2.52243c0,0,0,66.24658,2.52267,105.09421
				c1.00906-0.3494,1.97928-0.85394,2.83296-1.55246C144.46471,412.05606,143.41704,402.43158,149.39351,399.1329z"/>
		</g>
		<g>
			<path class="st7" d="M213.50565,458.70425c5.70477,9.77991,15.40697,16.95941,20.33575,27.20499
				c5.43332,11.17694,5.39447,26.07938,15.6012,33.18146c3.91948,2.71661,8.80942,3.76434,12.88452,6.36469
				c3.6478,2.32843,6.20932,5.51074,7.9169,9.19763c-0.23282-4.57941-0.58221-9.77985-1.16422-15.87286
				c-0.73737-7.8392-0.77621-15.75635-0.11652-23.59555c0.03101-0.38422,0.06158-0.81604,0.09259-1.21515
				c0.00974-0.12555,0.01968-0.25558,0.02939-0.38254c0.0867-1.12988,0.17102-2.31256,0.25415-3.55188
				c0.03174-0.47183,0.06396-0.93469,0.09476-1.42145c0.03528-0.55759,0.06845-1.13272,0.10233-1.70877
				c0.03531-0.60025,0.06915-1.20758,0.10257-1.827c0.03079-0.57275,0.0611-1.14218,0.09-1.73032
				c0.04123-0.84207,0.07913-1.70499,0.1156-2.57669c0.03387-0.80368,0.06396-1.61874,0.09286-2.44519
				c0.02487-0.71158,0.04901-1.42477,0.06985-2.15219c0.02014-0.69049,0.0372-1.38571,0.05331-2.0892
				c0.01398-0.61444,0.02463-1.23599,0.03528-1.85944c0.02298-1.32956,0.0365-2.6759,0.04312-4.04218
				c0.00259-0.56613,0.00735-1.1275,0.00687-1.69907c-0.00046-0.83829-0.0083-1.68344-0.01587-2.53238
				c-0.00497-0.5448-0.0116-1.09055-0.0199-1.63937c-0.01303-0.89087-0.02771-1.78055-0.0495-2.68018
				c-0.00781-0.32214-0.02039-0.64737-0.02939-0.97046c-0.04901-1.76825-0.11746-3.5462-0.20416-5.33527
				c-0.02463-0.50739-0.0488-1.01379-0.07651-1.52213c-0.04999-0.9136-0.10495-1.82556-0.16583-2.74106
				c-0.03577-0.53674-0.07721-1.07349-0.117-1.61047c-0.11322-1.53635-0.24445-3.06842-0.39178-4.60049
				c-0.0578-0.60022-0.11252-1.20093-0.17575-1.79974c-0.08789-0.83234-0.18524-1.65927-0.28424-2.48761
				c-0.07913-0.6637-0.16345-1.32455-0.25015-1.98495c-0.10254-0.78049-0.20297-1.56027-0.31619-2.33505
				c-0.18524-1.27155-0.38422-2.53476-0.59952-3.78662c-0.10754-0.62509-0.22787-1.23929-0.34323-1.85846
				c-0.15683-0.84421-0.31979-1.68323-0.49152-2.51535c-0.12555-0.60709-0.25275-1.21133-0.38657-1.81134
				c-0.24326-1.09219-0.50146-2.16995-0.77243-3.23538c-0.06323-0.24802-0.11511-0.50714-0.18002-0.75372l-0.00522-0.00095
				c-0.05591-0.009-27.61476-4.39276-54.24934-12.45651C202.25101,421.56424,202.63924,440.11496,213.50565,458.70425z"/>
		</g>
		<g>
			<path class="st11" d="M650.44672,496.0802c-0.53632,0-0.97028,0.43393-0.97028,0.97021v124.53857
				c0,0.53632,0.43396,0.97021,0.97028,0.97021c0.53625,0,0.97021-0.4339,0.97021-0.97021V497.05042
				C651.41693,496.51413,650.98297,496.0802,650.44672,496.0802z"/>
		</g>
		<g>
			<path class="st11" d="M664.96777,547.18726c-0.53632,0-0.97021,0.4339-0.97021,0.97021v96.4458
				c0,0.53632,0.4339,0.97021,0.97021,0.97021c0.53625,0,0.97021-0.4339,0.97021-0.97021v-96.4458
				C665.93799,547.62115,665.50403,547.18726,664.96777,547.18726z"/>
		</g>
		<g>
			<path class="st12" d="M636.39862,721.81244c-0.24725,0.9707-0.49548,1.96271-0.74396,2.99188
				c-0.25867,1.06451-0.51331,2.26093-0.77081,3.38727c-4.0592,17.8017-7.85461,43.12567-6.66766,73.49384
				c11.52966-5.23907,19.30682-9.62451,19.30682-9.62451c-3.27472-19.05524-4.98022-40.78802-5.69647-63.52991
				c-0.23877-7.8006-0.37524-15.67889-0.37524-23.63464c-0.38843,1.0896-0.82739,2.37982-1.29968,3.83661
				c-0.80347,2.48999-1.71729,5.51147-2.6745,9.00507C637.12207,719.03516,636.7627,720.38531,636.39862,721.81244z"/>
		</g>
		<g>
			<path class="st8" d="M536.18774,664.72845c0.07751-1.86273,0.11633-3.68689,0.23285-5.5108
				c0.73743-16.33856-0.89276-31.97833,0.07745-42.22394c4.5387-48.13879-4.02747-88.83185-4.03552-88.87024
				c-0.00238-0.00024-0.005-0.00073-0.00732-0.00092l-3.76483-18.20135c35.57428-1.55243,68.86115-7.2572,97.99615-16.06686
				l-2.68945-2.05249c-28.60345,8.38022-61.1463,13.77304-95.90503,15.28641l-3.44836-16.53256l-0.59808-2.91068l-3.37799-16.33856
				l-0.59808-2.87183l-3.34271-16.02802l-0.59839-2.83298l-3.13165-15.1355l-0.59808-2.87183l-2.56885-12.34116l-0.59808-2.91064
				l-2.98669-14.37848l-0.02249-0.0173v211.64273v58.81342l31.24973,139.01111
				C533.74377,778.43286,534.15356,713.66199,536.18774,664.72845z M525.61438,703.30719c0,0.53632-0.43396,0.97021-0.97021,0.97021
				s-0.97021-0.4339-0.97021-0.97021v-62.26831c0-0.53632,0.43396-0.97021,0.97021-0.97021s0.97021,0.4339,0.97021,0.97021
				V703.30719z"/>
		</g>
		<g>
			<path class="st0" d="M645.08514,593.74731c2.65485-48.55096,2.48096-79.27557,2.44855-82.94897
				c-7.4856,3.06036-62.14191,24.38977-115.07117,17.32513c0.00806,0.03839,8.57422,40.73145,4.03552,88.87024
				c-0.97021,10.24561,0.65997,25.88538-0.07745,42.22394c-0.11652,1.82391-0.15533,3.64807-0.23285,5.5108
				c-2.03418,48.93353-2.44397,113.70441,1.28455,146.65753c0.18359,1.62323,0.37427,3.19489,0.57825,4.65778
				c5.16162-0.03882,16.45483,1.63013,16.45483,1.63013c3.10468,0.776,6.40356,1.16425,9.89618,1.2417
				c0.97028-11.60382,0.50458-23.59558,0.50458-35.16071c0.03882-49.24835-2.75531-98.72949,3.22119-147.78363
				c1.70758-13.89355,4.30768-28.17517,9.97388-40.82684c2.0567-4.54059,8.92596-2.60016,8.2663,2.32843
				c-4.38544,32.13373-6.94696,64.65552,0.73737,95.93536c4.19141,16.99823,11.29321,33.1814,15.0578,50.25739
				c3.41522,15.56232,3.99719,31.55151,4.54059,47.46301c0.23279,6.40356,0.42682,12.9234-0.11658,19.32672
				c7.8783-2.75531,15.29065-5.8988,21.61652-8.77063c-1.16803-30.36761,2.61151-55.69141,6.68066-73.4931
				c0.25751-1.12634,0.51215-2.32275,0.77081-3.38727c0.24847-1.02917,0.4967-2.02118,0.74396-2.99188
				c0.36407-1.42712,0.72345-2.77728,1.07849-4.0744c0.95721-3.49359,1.87103-6.51508,2.6745-9.00507
				c0.47021-1.45703,0.90509-2.7475,1.28552-3.83728c-0.03107-7.33136,0.06299-14.71204,0.17053-22.08295
				c0.16199-11.08502,0.41901-22.15558,0.8385-33.06439C643.14471,630.14996,644.19238,611.17242,645.08514,593.74731z"/>
		</g>
		<g>
			<path class="st10" d="M512.39868,431.56631c6.50964-0.31052,13.0191-1.08676,19.4231-2.25098
				c2.74487-0.50452,5.38385-1.04767,7.98773-1.70758l-14.00446-10.74988c-5.13745,1.28052-10.55609,2.09558-15.97522,2.36728
				L512.39868,431.56631z"/>
		</g>
		<g>
			<path class="st10" d="M528.09204,507.08826c34.75873-1.51337,67.30157-6.90619,95.90503-15.28641l2.68945,2.05249
				l-2.67426-2.05676l-18.82501-14.35928c-24.27917,7.21838-51.72528,11.75894-80.54358,13.1174L528.09204,507.08826z"/>
		</g>
		<g>
			<path class="st10" d="M516.72681,452.40662l3.34271,16.02802c21.74554-1.00906,42.43567-4.30771,60.90894-9.46933
				l-18.0509-13.77707c-11.29517,3.10464-23.68109,5.35562-36.84106,6.55869
				C522.95477,452.05722,519.82312,452.25146,516.72681,452.40662z"/>
		</g>
		<g>
			<path class="st10" d="M512.99677,434.43814l3.13165,15.1355c3.2373-0.194,6.5097-0.42706,9.74677-0.69852
				c12.03418-1.08676,23.54034-3.14352,34.09644-5.93787l-17.13611-13.11737c-3.41302,0.93137-6.93176,1.70758-10.59137,2.36728
				C525.91046,433.35162,519.4361,434.12759,512.99677,434.43814z"/>
		</g>
		<g>
			<path class="st10" d="M506.24506,401.93604l2.98669,14.37848c4.6095-0.23285,9.1839-0.81506,13.58234-1.74646l-16.32767-12.46432
				l-0.24539-0.18735L506.24506,401.93604z"/>
		</g>
		<g>
			<path class="st10" d="M524.04559,487.64502c27.97363-1.24191,54.64563-5.54962,78.32648-12.38l-18.57867-14.16528
				c-19.10663,5.58847-40.5708,9.12021-63.12579,10.20673L524.04559,487.64502z"/>
		</g>
		<g>
			<path class="st6" d="M532.4552,528.12256c0.00232,0.00018,0.00494,0.00067,0.00732,0.00092
				c52.92926,7.06464,107.58557-14.26477,115.07117-17.32513c0.5708-0.23331,0.89844-0.37259,0.89844-0.37259l-21.74561-16.57141
				c-29.13501,8.80966-62.42188,14.51443-97.99615,16.06686L532.4552,528.12256z"/>
		</g>
		<g>
			<path class="st9" d="M509.82983,419.22516c5.41913-0.2717,10.83777-1.08676,15.97522-2.36728l-2.99097-2.28983
				c-4.39844,0.9314-8.97284,1.51361-13.58234,1.74646L509.82983,419.22516z"/>
		</g>
		<g>
			<path class="st9" d="M512.39868,431.56631l0.59808,2.87183c6.43933-0.31055,12.9137-1.08652,19.24738-2.25098
				c3.65961-0.6597,7.17834-1.43591,10.59137-2.36728l-2.95563-2.21213c-0.03534,0-0.03534,0-0.07037,0
				c-2.60388,0.65991-5.24286,1.20306-7.98773,1.70758C525.41779,430.47955,518.90833,431.2558,512.39868,431.56631z"/>
		</g>
		<g>
			<path class="st9" d="M516.12842,449.57364l0.59839,2.83298c3.09631-0.15515,6.22797-0.3494,9.35968-0.6597
				c13.15997-1.20306,25.5459-3.45404,36.84106-6.55869l-2.95593-2.25098c-10.55609,2.79434-22.06226,4.8511-34.09644,5.93787
				C522.63812,449.14658,519.36572,449.37964,516.12842,449.57364z"/>
		</g>
		<g>
			<path class="st9" d="M520.6676,471.30646c22.55499-1.08652,44.01917-4.61826,63.12579-10.20673l-2.81494-2.13443
				c-18.47327,5.16162-39.16339,8.46027-60.90894,9.46933L520.6676,471.30646z"/>
		</g>
		<g>
			<path class="st9" d="M524.64368,490.55569c28.8183-1.35846,56.2644-5.89902,80.54358-13.1174l-2.81519-2.17328
				c-23.68085,6.83038-50.35284,11.13809-78.32648,12.38L524.64368,490.55569z"/>
		</g>
		<g>
			<path class="st7" d="M606.70325,791.1286c-0.5434-15.9115-1.12537-31.9007-4.54059-47.46301
				c-3.76459-17.07599-10.86639-33.25916-15.0578-50.25739c-7.68433-31.27985-5.1228-63.80164-0.73737-95.93536
				c0.65967-4.92859-6.20959-6.86902-8.2663-2.32843c-5.6662,12.65167-8.2663,26.93329-9.97388,40.82684
				c-5.9765,49.05414-3.18237,98.53528-3.22119,147.78363c0,11.56512,0.4657,23.55688-0.50458,35.16071
				c13.0011,0.34937,28.29175-3.53149,42.18512-8.46027C607.13007,804.052,606.93604,797.53217,606.70325,791.1286z"/>
		</g>
		<g>
			<path class="st11" d="M524.64417,640.06866c-0.53625,0-0.97021,0.4339-0.97021,0.97021v62.26831
				c0,0.53632,0.43396,0.97021,0.97021,0.97021s0.97021-0.4339,0.97021-0.97021v-62.26831
				C525.61438,640.50256,525.18042,640.06866,524.64417,640.06866z"/>
		</g>
		<g>
			<path class="st8" d="M324.76462,450.59006c7.34555,1.57635,17.58875,3.31073,32.42984,5.14102
				c-13.79245-1.70215-24.33435-3.52249-32.30194-5.22324L324.76462,450.59006z"/>
		</g>
		<g>
			<path class="st8" d="M405.2616,582.42981l1.86276-2.63898l11.06039-15.71771l1.86298-2.67755l10.94409-15.56238l1.86276-2.6778
				l10.75009-15.29065l1.82388-2.63898h0.03885l10.12903-14.47583l1.86298-2.60013l8.42145-12.03061l1.86273-2.63898
				l5.51389-7.85083v-99.93277l-0.03104,0.0199l0.02985-0.01541l-4.5408,3.95834l-2.63898,2.28983l-13.15598,11.44861h-0.03885
				l-2.60037,2.28961l-15.6398,13.58304l-2.63895,2.28983l-16.49374,14.32043l-2.6778,2.32846l-16.76541,14.5921l-2.63898,2.28983
				l-16.99826,14.74728l-2.63898,2.32843h-0.03882l-15.79425,13.73776c0.00592,0.0007,0.01135,0.0014,0.01727,0.00211
				l-2.46533,218.70999c3.43958,28.73682-0.81601,59.39777-1.159,81.59692l32.9429-36.70721
				c1.94232-74.2533,4.65805-148.09912,4.65805-148.09912L405.2616,582.42981z M371.03864,701.17627
				c0,0.53625-0.43393,0.97021-0.97021,0.97021s-0.97021-0.43396-0.97021-0.97021v-56.4054
				c0-0.53625,0.43393-0.97021,0.97021-0.97021s0.97021,0.43396,0.97021,0.97021V701.17627z M383.13226,684.35846
				c0,0.53632-0.43393,0.97021-0.97021,0.97021s-0.97021-0.4339-0.97021-0.97021V559.81989
				c0-0.53625,0.43393-0.97021,0.97021-0.97021s0.97021,0.43396,0.97021,0.97021V684.35846z"/>
		</g>
		<g>
			<path class="st6" d="M314.90213,478.09293c2.88699,0.79944,6.33273,1.66162,10.5625,2.56458
				c7.96759,1.70074,18.50949,3.52109,32.30197,5.22324c0.06488,0.00803,0.12457,0.01587,0.18973,0.02393l15.79425-13.73776
				c-14.98013-3.72549-29.14542-8.14975-42.37912-13.19482h-0.03885l-28.56317,14.74728l0.00308,0.00165
				c0.00046-0.00095,0.00095-0.00143,0.0014-0.00238C306.155,474.68982,308.71249,476.20389,314.90213,478.09293z"/>
		</g>
		<g>
			<path class="st10" d="M393.42664,455.09119c-11.992-2.94949-23.44064-6.51984-34.11304-10.55609l-24.44949,12.61285
				c13.0011,4.88992,26.93329,9.12018,41.56427,12.69052L393.42664,455.09119z"/>
		</g>
		<g>
			<path class="st10" d="M412.83102,438.20926c-9.04251-2.25076-17.69681-4.92856-25.84677-7.95575h-0.0386l-24.17804,12.49652
				c10.43958,3.88089,21.61652,7.21838,33.298,10.05133L412.83102,438.20926z"/>
		</g>
		<g>
			<path class="st10" d="M432.00256,421.56036c-6.20956-1.55243-12.18604-3.33749-17.77451-5.39447l-23.75092,12.2637
				c7.9169,2.87183,16.26086,5.35541,25.03168,7.4512L432.00256,421.56036z"/>
		</g>
		<g>
			<path class="st10" d="M450.28131,405.6875c-3.4538-0.8537-6.75269-1.86276-9.93503-2.98813h-0.0386l-22.54813,11.64264
				c5.35565,1.90158,11.02179,3.53149,16.88196,4.92853L450.28131,405.6875z"/>
		</g>
		<g>
			<path class="st10" d="M452.92053,403.39789l13.15598-11.44861l2.63898-2.28983l4.5408-3.95834l-0.02985,0.01541l-6.56769,3.39978
				l-3.68689,1.90158h-0.03885l-19.05499,9.85736c2.91064,0.93137,5.89877,1.74643,9.00366,2.52264H452.92053z"/>
		</g>
		<g>
			<path class="st0" d="M355.50827,704.61676l2.46533-218.70999c-0.00592-0.0007-0.01135-0.0014-0.01727-0.00211
				c-0.06516-0.00806-0.12485-0.0159-0.18973-0.02393c-14.84109-1.83029-25.08429-3.56467-32.42987-5.14102
				c-4.39655-0.94348-7.75916-1.83032-10.4346-2.64679c-6.18964-1.88904-8.74713-3.40311-12.1282-4.3743
				c-0.00046,0.00095-0.00095,0.00143-0.0014,0.00238c-0.03839,0.07581-0.07675,0.1149-0.11514,0.19162
				c-0.93137,1.39706-1.51358,3.02722-1.78528,4.7348l-2.91064,53.01266c-1.94046,14.24274-2.13443,28.71857-0.62085,43.07764
				l6.44217,49.94684c1.94043,10.40094,2.52264,21.07336,1.86298,31.66809l-1.3613,85.49341l-0.36478,22.90912
				c5.47546,8.80988,38.02875,21.52582,50.4296,21.4585C354.69226,764.01453,358.94785,733.35358,355.50827,704.61676z"/>
		</g>
		<g>
			<path class="st9" d="M452.88168,403.39789c-3.10489-0.77621-6.09302-1.59128-9.00366-2.52264l-3.53174,1.82413
				c3.18234,1.12537,6.48123,2.13443,9.93503,2.98813L452.88168,403.39789z"/>
		</g>
		<g>
			<path class="st9" d="M434.64151,419.27054c-5.86017-1.39703-11.52631-3.02695-16.88196-4.92853l-3.53149,1.82388
				c5.58847,2.05698,11.56494,3.84204,17.77451,5.39447L434.64151,419.27054z"/>
		</g>
		<g>
			<path class="st9" d="M415.50882,435.8808c-8.77081-2.09579-17.11478-4.57938-25.03168-7.4512l-3.49289,1.82391
				c8.14996,3.02719,16.80426,5.70499,25.84677,7.95575L415.50882,435.8808z"/>
		</g>
		<g>
			<path class="st9" d="M396.06561,452.80136c-11.68149-2.83295-22.85843-6.17044-33.298-10.05133l-3.45401,1.78506
				c10.67239,4.03625,22.12103,7.6066,34.11304,10.55609L396.06561,452.80136z"/>
		</g>
		<g>
			<path class="st9" d="M373.7894,472.1669l2.63898-2.32843c-14.63098-3.57034-28.56317-7.8006-41.56427-12.69052l-3.49265,1.82413
				c13.2337,5.04507,27.39899,9.46933,42.37912,13.19482H373.7894z"/>
		</g>
		<g>
			<path class="st11" d="M381.58994,528.70001c-0.53629,0-0.97025,0.43396-0.97025,0.97021V654.2088
				c0,0.53632,0.43396,0.97028,0.97025,0.97028c0.53625,0,0.97021-0.43396,0.97021-0.97028V529.67023
				C382.56015,529.13397,382.12619,528.70001,381.58994,528.70001z"/>
		</g>
		<g>
			<path class="st11" d="M369.49631,613.651c-0.53629,0-0.97025,0.43396-0.97025,0.97021v56.4054
				c0,0.53625,0.43396,0.97021,0.97025,0.97021c0.53625,0,0.97021-0.43396,0.97021-0.97021v-56.4054
				C370.46652,614.08496,370.03256,613.651,369.49631,613.651z"/>
		</g>
		<g>
			<polygon class="st8" points="445.66132,872.08057 445.66772,872.04572 445.65918,872.06091 			"/>
		</g>
		<g>
			<path class="st8" d="M473.02145,455.03043l-2.00797,8.72699l-0.69852,2.91064l-2.8718,12.49631l-0.6597,2.79437
				l-3.49289,15.09641l-0.65967,2.79437l-3.68689,15.98917l-0.65967,2.87183l-3.76459,16.26086h-0.03885l-0.62082,2.83295h-0.03885
				l-3.80319,16.49377l-0.65967,2.79431l-3.72574,16.14435c-1.11731-0.08008-2.28436-0.15753-3.4924-0.2326
				c1.20306,0.07483,2.36584,0.1521,3.47891,0.23187c0,0,0.1163,24.64349,0.27145,59.8042
				c0.37378,84.07367,0.8551,228.20422-0.1142,238.42468l27.25662-145.74506v-96.07489V455.00128L473.02145,455.03043z
				 M459.25482,736.5448c0,0.53625-0.43396,0.97021-0.97025,0.97021c-0.53625,0-0.97021-0.43396-0.97021-0.97021V612.00623
				c0-0.53632,0.43396-0.97021,0.97021-0.97021c0.53629,0,0.97025,0.4339,0.97025,0.97021V736.5448z"/>
		</g>
		<g>
			<path class="st6" d="M391.37808,571.25769c0.36383,0.00476,0.82431,0.01166,1.37244,0.02087
				c0.44293,0.00732,0.94489,0.01636,1.50009,0.02655c1.1102,0.02057,2.43359,0.04712,3.92398,0.0791
				c0.74521,0.01611,1.53232,0.03339,2.35519,0.05231c9.9476,0.22766,25.39529,0.66779,37.87787,1.35016
				c1.27863,0.06989,2.52576,0.1424,3.7326,0.21747c1.20804,0.07507,2.37509,0.15253,3.4924,0.2326l3.72574-16.14435
				c-15.25208-0.97021-30.15448-2.56128-44.66891-4.81226L391.37808,571.25769z"/>
		</g>
		<g>
			<path class="st0" d="M425.01172,739.57031c3.33749-9.00366,7.9169-17.54163,10.40073-26.81671
				c5.35562-19.94775,0.65967-41.13745,2.91064-61.66718c0.73737-6.55872,2.87183-13.89362,7.56754-18.0462
				c-0.15515-35.16071-0.27145-59.8042-0.27145-59.8042c-1.11307-0.07977-2.27585-0.15704-3.47891-0.23187
				c-1.20685-0.07507-2.45398-0.14758-3.7326-0.21747c-12.48257-0.68237-27.93027-1.1225-37.87787-1.35016
				c-0.82288-0.01892-1.60999-0.03619-2.35519-0.05231c-1.49039-0.03198-2.81378-0.05853-3.92398-0.0791
				c-0.55521-0.01019-1.05716-0.01923-1.50009-0.02655c-0.54813-0.00922-1.00861-0.01611-1.37244-0.02087
				c0,0-2.7157,73.84589-4.65802,148.09912c-1.95892,74.89374-3.1312,150.20203,0.06488,150.57227
				c4.2691,0.50452,8.73196,1.08649,13.35022,1.591c4.8511-30.89185,10.16788-61.78345,15.48468-92.5976
				C417.90964,765.61108,420.23807,752.22205,425.01172,739.57031z"/>
		</g>
		<g>
			<path class="st10" d="M406.55222,549.64124c14.08759,2.17328,28.64087,3.68665,43.46585,4.65686l3.80319-16.49377
				c-12.34116-0.81482-24.44946-2.1344-36.20865-3.88086L406.55222,549.64124z"/>
		</g>
		<g>
			<path class="st10" d="M419.47559,531.24591c11.37094,1.70734,23.05243,2.94928,35.00534,3.72546h0.03885l3.76459-16.26086
				c-9.50821-0.65967-18.82239-1.66876-27.86465-3.02698L419.47559,531.24591z"/>
		</g>
		<g>
			<path class="st10" d="M432.28244,513.00574c8.65427,1.28052,17.58047,2.2121,26.66159,2.83295l3.68689-15.98917
				c-6.67523-0.42685-13.19507-1.16422-19.59839-2.13446L432.28244,513.00574z"/>
		</g>
		<g>
			<path class="st10" d="M444.89529,495.07611c6.01529,0.89252,12.14716,1.55222,18.39529,1.97903l3.49289-15.09641
				c-3.99741-0.2717-7.91714-0.7374-11.75916-1.35846L444.89529,495.07611z"/>
		</g>
		<g>
			<path class="st10" d="M456.8873,478.00015c3.4538,0.4657,6.98553,0.85391,10.55588,1.16422l2.8718-12.49631
				c-1.70758-0.194-3.37634-0.42685-5.00626-0.69852L456.8873,478.00015z"/>
		</g>
		<g>
			<path class="st10" d="M471.01349,463.75742l2.00797-8.72699l0.01019-0.04382l-0.34631,0.49316l-5.51385,7.8508
				C468.45224,463.48572,469.73297,463.64087,471.01349,463.75742z"/>
		</g>
		<g>
			<path class="st9" d="M465.30872,465.96954c1.62991,0.27167,3.29868,0.50452,5.00626,0.69852l0.69852-2.91064
				c-1.28052-0.11655-2.56125-0.2717-3.84201-0.42685L465.30872,465.96954z"/>
		</g>
		<g>
			<path class="st9" d="M455.02432,480.60028c3.84201,0.62106,7.76175,1.08676,11.75916,1.35846l0.6597-2.79437
				c-3.57034-0.3103-7.10208-0.69852-10.55588-1.16422L455.02432,480.60028z"/>
		</g>
		<g>
			<path class="st9" d="M444.85645,495.07611l-1.82391,2.63895c6.40332,0.97025,12.92316,1.70761,19.59839,2.13446l0.65967-2.79437
				c-6.24814-0.42682-12.38-1.08652-18.39529-1.97903H444.85645z"/>
		</g>
		<g>
			<path class="st9" d="M430.41971,515.68353c9.04227,1.35822,18.35645,2.36731,27.86465,3.02698l0.65967-2.87183
				c-9.08112-0.62085-18.00732-1.55243-26.66159-2.83295L430.41971,515.68353z"/>
		</g>
		<g>
			<path class="st9" d="M417.61261,533.92346c11.75919,1.74646,23.86749,3.06604,36.20865,3.88086h0.03885l0.62082-2.83295
				c-11.95291-0.77618-23.6344-2.01813-35.00534-3.72546L417.61261,533.92346z"/>
		</g>
		<g>
			<path class="st9" d="M404.68948,552.28015c14.51443,2.25098,29.41684,3.84204,44.66891,4.81226l0.65967-2.79431
				c-14.82498-0.97021-29.37827-2.48358-43.46585-4.65686L404.68948,552.28015z"/>
		</g>
		<g>
			<path class="st7" d="M445.89062,633.04022c-4.69571,4.15259-6.83017,11.48749-7.56754,18.0462
				c-2.25098,20.52972,2.44498,41.71942-2.91064,61.66718c-2.48383,9.27509-7.06323,17.81305-10.40073,26.81671
				c-4.77365,12.65173-7.10208,26.04077-9.39188,39.35217c-5.3168,30.81415-10.63358,61.70575-15.48468,92.5976
				c14.32047,1.55249,29.99911,2.63898,45.52261,0.5434c0.00046,0.00024,0.00095-0.00281,0.0014-0.00256
				c0.00287,0.00067,0.00571-0.01398,0.00854-0.0152c0.03812-0.01703,0.07437-0.21838,0.1087-0.58081
				C446.74573,861.24445,446.2644,717.11389,445.89062,633.04022z"/>
		</g>
		<g>
			<path class="st11" d="M458.28458,611.03601c-0.53625,0-0.97021,0.4339-0.97021,0.97021V736.5448
				c0,0.53625,0.43396,0.97021,0.97021,0.97021c0.53629,0,0.97025-0.43396,0.97025-0.97021V612.00623
				C459.25482,611.46991,458.82086,611.03601,458.28458,611.03601z"/>
		</g>
		<g>
			<path class="st13" d="M391.49963,84.34879c2.01495,1.58034,3.02243,3.79065,3.02243,6.63187
				c0,1.76862-0.4129,3.3485-1.23917,4.74008c-0.82629,1.39207-2.06592,2.48637-3.71848,3.28385
				c-1.65253,0.79749-3.68213,1.19576-6.08826,1.19576c-2.17444,0-4.24036-0.35486-6.19727-1.06551
				c-1.95691-0.71019-3.53018-1.65915-4.71838-2.8483l1.52182-2.47929c1.01456,1.04381,2.34857,1.89178,4.00113,2.5444
				c1.65253,0.65215,3.43533,0.97822,5.34927,0.97822c2.52225,0,4.47159-0.56532,5.84903-1.69595
				c1.3765-1.13064,2.06592-2.63784,2.06592-4.52255c0-2.08762-0.77625-3.66749-2.32687-4.74055
				c-1.55109-1.07212-4.16815-1.60913-7.84979-1.60913h-6.47995l1.56573-15.26454h16.65613v2.78318h-13.91638l-1.04379,9.69818
				h3.91428C386.2735,81.97851,389.48422,82.76892,391.49963,84.34879z"/>
			<path class="st13" d="M404.32877,98.33028c-1.84177-1.24625-3.27676-3.03658-4.30548-5.37099
				c-1.02963-2.33347-1.54401-5.08079-1.54401-8.241c0-3.15974,0.51437-5.90706,1.54401-8.241
				c1.02872-2.33347,2.46371-4.12428,4.30548-5.37099c1.84082-1.24625,3.93552-1.87008,6.28409-1.87008
				s4.44281,0.62383,6.28412,1.87008c1.84082,1.24672,3.28336,3.03752,4.32718,5.37099c1.04379,2.33395,1.5657,5.08126,1.5657,8.241
				c0,3.16022-0.52191,5.90753-1.5657,8.241c-1.04382,2.33441-2.48636,4.12475-4.32718,5.37099
				c-1.84131,1.24672-3.93555,1.87008-6.28412,1.87008S406.16959,99.577,404.32877,98.33028z M415.28784,95.85146
				c1.34818-0.9853,2.39859-2.4203,3.15314-4.30548c0.7536-1.88424,1.13062-4.16014,1.13062-6.82771
				c0-2.6671-0.37701-4.943-1.13062-6.82771c-0.75455-1.88424-1.80496-3.31971-3.15314-4.30548
				c-1.34818-0.9853-2.90683-1.47842-4.67499-1.47842c-1.76862,0-3.32678,0.49312-4.67496,1.47842
				c-1.34818,0.98577-2.39954,2.42124-3.15314,4.30548c-0.75406,1.8847-1.13065,4.16061-1.13065,6.82771
				c0,2.66756,0.37659,4.94347,1.13065,6.82771c0.7536,1.88519,1.80496,3.32018,3.15314,4.30548
				c1.34818,0.98577,2.90634,1.47842,4.67496,1.47842C412.38101,97.32988,413.93967,96.83723,415.28784,95.85146z"/>
			<path class="st13" d="M428.72571,83.52252c-1.26135-1.5223-1.89178-3.51555-1.89178-5.97973
				c0-2.46419,0.63043-4.4579,1.89178-5.97973c1.26086-1.5223,2.9205-2.28345,4.97934-2.28345
				c2.02908,0,3.68164,0.75455,4.95761,2.26175c1.27551,1.50767,1.91351,3.50799,1.91351,6.00143s-0.638,4.49423-1.91351,6.00143
				c-1.27597,1.50768-2.92853,2.26128-4.95761,2.26128C431.64621,85.8055,429.98657,85.04435,428.72571,83.52252z
				 M437.11914,82.17435c0.85458-1.11601,1.28256-2.66002,1.28256-4.63155s-0.42798-3.51555-1.28256-4.63155
				c-0.85553-1.11601-1.99374-1.67472-3.41409-1.67472c-1.4501,0-2.59491,0.56532-3.43579,1.69643
				c-0.84091,1.13064-1.26089,2.66756-1.26089,4.60985c0,1.94275,0.41998,3.47874,1.26089,4.60984
				c0.84088,1.13064,1.98569,1.69596,3.43579,1.69596C435.1254,83.84859,436.26361,83.29082,437.11914,82.17435z
				 M452.14441,69.49715h2.56564l-20.78748,30.44226h-2.5661L452.14441,69.49715z M447.40387,97.87349
				c-1.27597-1.52183-1.91351-3.51507-1.91351-5.97973c0-2.46371,0.63754-4.45743,1.91351-5.97973
				c1.27551-1.52183,2.92804-2.28298,4.9581-2.28298c2.05789,0,3.71799,0.76115,4.97931,2.28298
				c1.26135,1.5223,1.89182,3.51602,1.89182,5.97973c0,2.46466-0.63046,4.4579-1.89182,5.97973
				c-1.26132,1.5223-2.92142,2.28345-4.97931,2.28345C450.33191,100.15694,448.67938,99.39579,447.40387,97.87349z
				 M455.79727,96.50361c0.84091-1.13064,1.26135-2.6671,1.26135-4.60985c0-1.9418-0.42044-3.47874-1.26135-4.60985
				c-0.84088-1.13063-1.98615-1.69595-3.4353-1.69595c-1.42087,0-2.55905,0.55872-3.41409,1.67425
				c-0.85553,1.11649-1.28305,2.66049-1.28305,4.63155c0,1.97201,0.42752,3.51601,1.28305,4.63155
				c0.85504,1.11648,1.99323,1.67472,3.41409,1.67472C453.81113,98.20004,454.95639,97.63472,455.79727,96.50361z"/>
			<path class="st13" d="M482.4772,98.20004c-2.42078-1.33355-4.31964-3.18145-5.69659-5.54512
				c-1.37698-2.36273-2.06592-5.00812-2.06592-7.93664c0-2.92805,0.68893-5.57343,2.06592-7.93664
				c1.37695-2.36272,3.28336-4.21111,5.71829-5.54512c2.43588-1.33308,5.16055-2.00032,8.17682-2.00032
				c2.26129,0,4.34891,0.37704,6.26193,1.13064c1.91397,0.75454,3.53723,1.85592,4.87079,3.30508l-2.04419,2.0442
				c-2.37738-2.40614-5.37857-3.60945-9.00168-3.60945c-2.40756,0-4.59616,0.55069-6.56677,1.65254
				c-1.97247,1.10185-3.51648,2.60905-4.63202,4.52254c-1.11649,1.9135-1.67426,4.05963-1.67426,6.43652
				c0,2.37783,0.55777,4.52302,1.67426,6.43652c1.11554,1.91349,2.65955,3.42117,4.63202,4.52254
				c1.97061,1.10233,4.15921,1.65254,6.56677,1.65254c3.65237,0,6.65356-1.21746,9.00168-3.65286l2.04419,2.04373
				c-1.33356,1.4501-2.96439,2.55951-4.89249,3.32726c-1.92813,0.76823-4.02237,1.15234-6.28458,1.15234
				C487.61603,100.20036,484.89798,99.53358,482.4772,98.20004z"/>
		</g>
		<g>
			<path class="st13" d="M881.9903,143.81717h-6.08923v8.00175h-3.13049v-8.00175h-17.17853v-2.26173l16.1347-20.17876h3.47876
				l-15.5694,19.65685h13.22131v-7.04524h3.04364v7.04524h6.08923V143.81717z"/>
			<path class="st13" d="M905.47412,149.03575v2.78317h-21.35376v-2.21785l12.65594-12.39455
				c1.59406-1.5657,2.67468-2.92049,3.23999-4.06622c0.56531-1.14479,0.84747-2.29713,0.84747-3.45703
				c0-1.79742-0.61627-3.19656-1.8479-4.19695c-1.23254-1.0004-2.99457-1.50012-5.28418-1.50012
				c-3.56647,0-6.33551,1.13064-8.30609,3.39191l-2.2179-1.9135c1.18823-1.39159,2.703-2.46371,4.54431-3.21825
				c1.84125-0.7536,3.92041-1.13064,6.24115-1.13064c3.1012,0,5.55878,0.73237,7.37085,2.19615
				c1.81201,1.46426,2.71802,3.4726,2.71802,6.02315c0,1.5657-0.34827,3.07338-1.04382,4.52301
				c-0.69556,1.4501-2.01489,3.11681-3.95721,5.00104l-10.35034,10.17668H905.47412z"/>
			<path class="st13" d="M911.27924,135.40204c-1.26184-1.52229-1.89227-3.51553-1.89227-5.97972s0.63043-4.4579,1.89227-5.97973
				c1.26086-1.5223,2.92004-2.28345,4.97931-2.28345c2.02911,0,3.6817,0.75455,4.95764,2.26175
				c1.27502,1.50767,1.91302,3.508,1.91302,6.00143s-0.638,4.49423-1.91302,6.00143
				c-1.27594,1.50768-2.92853,2.26128-4.95764,2.26128C914.19928,137.68503,912.5401,136.92387,911.27924,135.40204z
				 M919.67218,134.05386c0.85504-1.116,1.28259-2.66,1.28259-4.63155c0-1.97153-0.42755-3.51555-1.28259-4.63155
				s-1.99323-1.67472-3.41364-1.67472c-1.45056,0-2.59534,0.56532-3.43622,1.69643
				c-0.84094,1.13064-1.26093,2.66756-1.26093,4.60986c0,1.94275,0.41998,3.47873,1.26093,4.60985
				c0.84088,1.13063,1.98566,1.69595,3.43622,1.69595C917.67896,135.72812,918.81714,135.17035,919.67218,134.05386z
				 M934.69794,121.37668h2.56519l-20.78748,30.44225h-2.5661L934.69794,121.37668z M929.9574,149.75302
				c-1.276-1.52184-1.91394-3.51508-1.91394-5.97974c0-2.46371,0.63794-4.45743,1.91394-5.97972
				c1.27502-1.52184,2.92755-2.28299,4.95764-2.28299c2.05835,0,3.71844,0.76115,4.97931,2.28299
				c1.26184,1.52229,1.89227,3.51601,1.89227,5.97972c0,2.46466-0.63043,4.4579-1.89227,5.97974
				c-1.26086,1.52229-2.92096,2.28345-4.97931,2.28345C932.88495,152.03647,931.23242,151.27531,929.9574,149.75302z
				 M938.35034,148.38313c0.84088-1.13063,1.26184-2.6671,1.26184-4.60985c0-1.9418-0.42096-3.47873-1.26184-4.60985
				c-0.84088-1.13063-1.98572-1.69595-3.4353-1.69595c-1.42041,0-2.55859,0.55872-3.41364,1.67426
				c-0.85602,1.11647-1.28351,2.66049-1.28351,4.63155c0,1.97202,0.42749,3.51602,1.28351,4.63156
				c0.85504,1.11647,1.99323,1.67471,3.41364,1.67471C936.36462,150.07956,937.50946,149.51424,938.35034,148.38313z"/>
			<path class="st13" d="M965.07416,150.05786c-2.45099-1.34819-4.36401-3.19656-5.74097-5.54514s-2.06592-4.9864-2.06592-7.91492
				c0-2.92805,0.68896-5.56636,2.06592-7.91493c1.37695-2.34858,3.28998-4.19695,5.74097-5.54513
				c2.4491-1.3477,5.18127-2.02203,8.19757-2.02203c3.0144,0,5.73248,0.66724,8.15417,2.00032
				c2.41986,1.33402,4.32721,3.1824,5.71832,5.54511c1.39203,2.3632,2.08759,5.00859,2.08759,7.93665
				c0,2.92851-0.69556,5.5739-2.08759,7.93663c-1.39111,2.36368-3.29846,4.21158-5.71832,5.54512
				c-2.42169,1.33354-5.13977,2.00032-8.15417,2.00032C970.25543,152.07988,967.52325,151.40556,965.07416,150.05786z
				 M979.79504,147.57857c1.94135-1.08722,3.46368-2.59442,4.56598-4.52255c1.10138-1.92812,1.65253-4.08038,1.65253-6.45821
				c0-2.37689-0.55115-4.52963-1.65253-6.45822c-1.10229-1.92766-2.62463-3.43533-4.56598-4.52255
				c-1.94318-1.08723-4.11761-1.63084-6.52332-1.63084c-2.40753,0-4.58862,0.54361-6.54504,1.63084
				c-1.9574,1.08723-3.49475,2.59489-4.61029,4.52255c-1.11652,1.92859-1.67426,4.08133-1.67426,6.45822
				c0,2.37782,0.55774,4.53009,1.67426,6.45821c1.11554,1.92813,2.65289,3.43533,4.61029,4.52255
				c1.95642,1.08722,4.13751,1.63084,6.54504,1.63084C975.67743,149.20941,977.85187,148.66579,979.79504,147.57857z"/>
		</g>
		<g>
			<path class="st13" d="M874.05316,770.02148c1.5506,0.75458,2.76147,1.81964,3.63165,3.19659
				c0.8692,1.37744,1.30426,2.979,1.30426,4.80566c0,1.85547-0.4502,3.49384-1.34772,4.91418
				c-0.89941,1.4209-2.13855,2.51562-3.71844,3.28339c-1.58081,0.76825-3.35602,1.15234-5.32758,1.15234
				c-4.02991,0-7.11792-1.32648-9.26312-3.97937c-2.14612-2.65247-3.21826-6.39972-3.21826-11.24176
				c0-3.3924,0.57947-6.26239,1.73938-8.61096c1.15894-2.34808,2.7832-4.12378,4.87079-5.32709
				c2.08765-1.20282,4.52258-1.80499,7.3067-1.80499c3.0144,0,5.42102,0.55121,7.21887,1.65259l-1.26178,2.52222
				c-1.44965-0.95654-3.4212-1.435-5.9137-1.435c-3.36359,0-6.0014,1.06549-7.91541,3.19653
				c-1.91302,2.13104-2.87,5.22614-2.87,9.28479c0,0.72534,0.0434,1.55157,0.13025,2.47882
				c0.75311-1.65253,1.9574-2.93561,3.60992-3.84869s3.55048-1.36987,5.69659-1.36987
				C870.72638,768.89087,872.50159,769.26788,874.05316,770.02148z M873.83612,782.91626
				c1.37598-1.20282,2.06494-2.80536,2.06494-4.80566c0-2.00037-0.68896-3.59485-2.06494-4.784
				c-1.37793-1.18823-3.23999-1.78278-5.58905-1.78278c-1.53644,0-2.89172,0.29022-4.06573,0.86969
				c-1.17407,0.58038-2.09515,1.37744-2.76147,2.39197c-0.66724,1.01501-1.00043,2.14569-1.00043,3.39191
				c0,1.15991,0.31146,2.23297,0.9353,3.21826c0.62286,0.98578,1.54303,1.78326,2.76147,2.39197
				c1.21747,0.60876,2.66711,0.91315,4.34888,0.91315C870.66785,784.72076,872.45819,784.11957,873.83612,782.91626z"/>
			<path class="st13" d="M883.18604,770.69586c-1.26086-1.52234-1.8913-3.51556-1.8913-5.97974
				c0-2.46423,0.63043-4.45795,1.8913-5.97974c1.26086-1.52234,2.92096-2.28345,4.97931-2.28345
				c2.02911,0,3.68164,0.75452,4.95764,2.26172c1.276,1.50769,1.91394,3.508,1.91394,6.00146
				c0,2.49341-0.63794,4.4942-1.91394,6.0014c-1.276,1.50769-2.92853,2.26129-4.95764,2.26129
				C886.10699,772.97882,884.4469,772.21765,883.18604,770.69586z M891.5799,769.34766
				c0.85413-1.11603,1.28259-2.66003,1.28259-4.63153c0-1.97156-0.42847-3.51556-1.28259-4.63159
				c-0.85596-1.11597-1.99414-1.67468-3.41455-1.67468c-1.44965,0-2.59442,0.56531-3.4353,1.69641
				c-0.84088,1.13062-1.26086,2.66754-1.26086,4.60986c0,1.94275,0.41998,3.4787,1.26086,4.6098
				c0.84088,1.13068,1.98566,1.69598,3.4353,1.69598C889.58575,771.02191,890.72394,770.46411,891.5799,769.34766z
				 M906.60474,756.67047h2.5661l-20.78748,30.44226h-2.5661L906.60474,756.67047z M901.8642,785.04681
				c-1.276-1.52185-1.91302-3.51508-1.91302-5.97974c0-2.46368,0.63702-4.4574,1.91302-5.97974
				c1.27594-1.52185,2.92853-2.28296,4.95856-2.28296c2.05743,0,3.71753,0.76111,4.97931,2.28296
				c1.26093,1.52234,1.89136,3.51605,1.89136,5.97974c0,2.46466-0.63043,4.45789-1.89136,5.97974
				c-1.26178,1.52228-2.92188,2.28345-4.97931,2.28345C904.79272,787.33026,903.14014,786.56909,901.8642,785.04681z
				 M910.25806,783.67694c0.84094-1.13068,1.26093-2.66711,1.26093-4.60986c0-1.94183-0.41998-3.47876-1.26093-4.60986
				c-0.84088-1.13062-1.98663-1.69592-3.4353-1.69592c-1.42133,0-2.55951,0.55872-3.41455,1.67426
				c-0.85504,1.11646-1.28259,2.66046-1.28259,4.63153c0,1.97198,0.42755,3.51599,1.28259,4.63153
				c0.85504,1.11652,1.99323,1.67474,3.41455,1.67474C908.27142,785.37335,909.41718,784.80804,910.25806,783.67694z"/>
			<path class="st13" d="M957.31165,756.67047v30.44226h-3.17487v-14.04712H935.0896v14.04712h-3.21826v-30.44226h3.21826v13.5686
				h19.04718v-13.5686H957.31165z"/>
		</g>
		<g>
			<path class="st13" d="M77.18259,834.17053v30.44226h-3.13096v-27.65912h-7.17596v-2.78314H77.18259z"/>
			<path class="st13" d="M85.90208,848.19592c-1.26134-1.52234-1.89178-3.51556-1.89178-5.97974
				c0-2.46423,0.63044-4.45746,1.89178-5.97974c1.26088-1.52234,2.9205-2.28302,4.97933-2.28302
				c2.02911,0,3.68165,0.75409,4.95763,2.26129c1.27551,1.50818,1.9135,3.508,1.9135,6.00146
				c0,2.49341-0.63799,4.4942-1.9135,6.0014c-1.27598,1.50818-2.92852,2.26129-4.95763,2.26129
				C88.82259,850.47888,87.16296,849.7182,85.90208,848.19592z M94.29551,846.84723
				c0.85458-1.11554,1.28259-2.65955,1.28259-4.63104c0-1.97156-0.428-3.51556-1.28259-4.6311
				c-0.85553-1.11646-1.99372-1.67517-3.41409-1.67517c-1.4501,0-2.59489,0.56531-3.43579,1.69592
				c-0.8409,1.13068-1.26088,2.66803-1.26088,4.61035c0,1.94318,0.41998,3.4787,1.26088,4.61029
				c0.8409,1.13062,1.98569,1.69501,3.43579,1.69501C92.30179,848.52148,93.43998,847.96466,94.29551,846.84723z
				 M109.3208,834.17053h2.56564l-20.78749,30.44226h-2.56611L109.3208,834.17053z M104.58025,862.54688
				c-1.27598-1.52234-1.9135-3.51556-1.9135-5.97974s0.63752-4.45746,1.9135-5.97974
				c1.27551-1.52228,2.92805-2.28296,4.95809-2.28296c2.05789,0,3.71799,0.76068,4.97933,2.28296
				c1.26135,1.52228,1.89179,3.51556,1.89179,5.97974s-0.63044,4.4574-1.89179,5.97974
				c-1.26134,1.52228-2.92144,2.28296-4.97933,2.28296C107.50829,864.82983,105.85575,864.06915,104.58025,862.54688z
				 M112.97366,861.17743c0.8409-1.13062,1.26135-2.66705,1.26135-4.61029c0-1.94135-0.42045-3.47876-1.26135-4.61029
				c-0.8409-1.13068-1.98616-1.69507-3.43533-1.69507c-1.42085,0-2.55903,0.55872-3.41409,1.67426
				c-0.85553,1.11554-1.28306,2.65955-1.28306,4.6311s0.42753,3.51556,1.28306,4.6311
				c0.85506,1.11737,1.99324,1.67517,3.41409,1.67517C110.9875,862.87341,112.13277,862.30811,112.97366,861.17743z"/>
			<path class="st13" d="M160.02864,834.17053v30.44226h-2.65294l-19.57002-24.70227v24.70227h-3.21826v-30.44226h2.65294
				l19.61343,24.70221v-24.70221H160.02864z"/>
		</g>
		<g>
			<path class="st13" d="M48.85273,734.99677v30.44226h-3.13096v-27.65906h-9.69794v-2.7832H48.85273z"/>
			<path class="st13" d="M57.57222,749.02216c-1.26135-1.52228-1.89179-3.51556-1.89179-5.97974s0.63044-4.45789,1.89179-5.97974
				c1.26088-1.52228,2.9205-2.28345,4.97933-2.28345c2.02911,0,3.68165,0.75458,4.95763,2.26178
				c1.27551,1.50763,1.91349,3.50793,1.91349,6.0014s-0.63799,4.49426-1.91349,6.00146
				c-1.27598,1.50763-2.92852,2.26123-4.95763,2.26123C60.49272,751.30511,58.8331,750.54401,57.57222,749.02216z
				 M65.96564,747.67395c0.85458-1.11597,1.28259-2.65997,1.28259-4.63153s-0.428-3.51556-1.28259-4.63153
				c-0.85553-1.11603-1.99371-1.67474-3.41409-1.67474c-1.4501,0-2.59489,0.56531-3.43579,1.69641
				c-0.8409,1.13068-1.26088,2.6676-1.26088,4.60986c0,1.94275,0.41998,3.47876,1.26088,4.60986
				c0.8409,1.13062,1.98569,1.69592,3.43579,1.69592C63.97193,749.34821,65.11012,748.79047,65.96564,747.67395z
				 M80.99094,734.99677h2.56564L62.7691,765.43903h-2.56611L80.99094,734.99677z M76.25038,763.37311
				c-1.27598-1.52179-1.91349-3.51508-1.91349-5.97974c0-2.46368,0.63751-4.4574,1.91349-5.97974
				c1.27551-1.52179,2.92805-2.28296,4.9581-2.28296c2.05789,0,3.71798,0.76117,4.97933,2.28296
				c1.26134,1.52234,1.89178,3.51605,1.89178,5.97974c0,2.46466-0.63044,4.45795-1.89178,5.97974
				c-1.26135,1.52234-2.92144,2.28345-4.97933,2.28345C79.17843,765.65656,77.52589,764.89545,76.25038,763.37311z
				 M84.64381,762.00323c0.8409-1.13062,1.26134-2.66711,1.26134-4.60986c0-1.94177-0.42045-3.4787-1.26134-4.6098
				c-0.8409-1.13068-1.98617-1.69598-3.43533-1.69598c-1.42085,0-2.55904,0.55872-3.41409,1.67426
				c-0.85552,1.11646-1.28305,2.66046-1.28305,4.63153c0,1.97205,0.42753,3.51605,1.28305,4.63159
				c0.85506,1.11646,1.99325,1.67468,3.41409,1.67468C82.65764,763.69965,83.8029,763.13434,84.64381,762.00323z"/>
		</g>
		<g>
			<rect x="297.82608" y="847.31335" class="st13" width="69.81592" height="2"/>
		</g>
		<g>
			<rect x="658.32532" y="770.1297" class="st13" width="61.29224" height="2"/>
		</g>
		<g>
			<rect x="221.1752" y="753.5957" class="st13" width="68.52261" height="2"/>
		</g>
		<g>
			<rect x="301.19684" y="150.05354" class="st13" width="2" height="60.93181"/>
		</g>
		<g>
			<rect x="782.06348" y="200.40736" class="st13" width="2" height="56.49748"/>
		</g>
	</g>
</g>
</svg>
